<svg xmlns="http://www.w3.org/2000/svg" xmlns:xlink="http://www.w3.org/1999/xlink" width="150" zoomAndPan="magnify" viewBox="0 0 112.5 112.499997" height="150" preserveAspectRatio="xMidYMid meet" version="1.0"><defs><clipPath id="d8c2b2b952"><path d="M 0 0 L 112.003906 0 L 112.003906 112.003906 L 0 112.003906 Z M 0 0 " clip-rule="nonzero"/></clipPath><clipPath id="fe5d75e1e6"><path d="M 56 0 C 25.074219 0 0 25.074219 0 56 C 0 86.929688 25.074219 112.003906 56 112.003906 C 86.929688 112.003906 112.003906 86.929688 112.003906 56 C 112.003906 25.074219 86.929688 0 56 0 Z M 56 0 " clip-rule="nonzero"/></clipPath><clipPath id="153850319c"><path d="M 5.089844 5.089844 L 106.910156 5.089844 L 106.910156 106.910156 L 5.089844 106.910156 Z M 5.089844 5.089844 " clip-rule="nonzero"/></clipPath><clipPath id="17519cb955"><path d="M 56 5.089844 C 27.882812 5.089844 5.089844 27.882812 5.089844 56 C 5.089844 84.117188 27.882812 106.910156 56 106.910156 C 84.117188 106.910156 106.910156 84.117188 106.910156 56 C 106.910156 27.882812 84.117188 5.089844 56 5.089844 Z M 56 5.089844 " clip-rule="nonzero"/></clipPath><clipPath id="26eb965484"><path d="M 35.039062 27 L 75 27 L 75 86 L 35.039062 86 Z M 35.039062 27 " clip-rule="nonzero"/></clipPath><clipPath id="d6afa0f602"><path d="M 35.039062 26 L 76 26 L 76 87.394531 L 35.039062 87.394531 Z M 35.039062 26 " clip-rule="nonzero"/></clipPath></defs><g clip-path="url(#d8c2b2b952)"><g clip-path="url(#fe5d75e1e6)"><path fill="#ffffff" d="M 0 0 L 112.003906 0 L 112.003906 112.003906 L 0 112.003906 Z M 0 0 " fill-opacity="1" fill-rule="nonzero"/><path stroke-linecap="butt" transform="matrix(1.018202, 0, 0, 1.018202, 0.0000015, 0.000000995575)" fill="none" stroke-linejoin="miter" d="M 54.998918 -0.000000977778 C 24.625979 -0.000000977778 -0.00000147319 24.62598 -0.00000147319 54.998918 C -0.00000147319 85.375693 24.625979 110.001674 54.998918 110.001674 C 85.375692 110.001674 110.001673 85.375693 110.001673 54.998918 C 110.001673 24.62598 85.375692 -0.000000977778 54.998918 -0.000000977778 Z M 54.998918 -0.000000977778 " stroke="#6d6d6d" stroke-width="2.933333" stroke-opacity="1" stroke-miterlimit="4"/></g></g><g clip-path="url(#153850319c)"><g clip-path="url(#17519cb955)"><path fill="#6d6d6d" d="M 5.089844 5.089844 L 106.910156 5.089844 L 106.910156 106.910156 L 5.089844 106.910156 Z M 5.089844 5.089844 " fill-opacity="1" fill-rule="nonzero"/></g></g><g clip-path="url(#26eb965484)"><path fill="#ffffff" d="M 57.109375 77.085938 C 57.832031 78.085938 59.332031 80.980469 57.097656 83.871094 C 54.4375 87.316406 47.140625 86.832031 47.144531 79.847656 L 47.144531 78.507812 C 49.308594 73.578125 55.109375 73.914062 57.109375 77.085938 Z M 69.957031 33.882812 C 61.945312 25.285156 41.058594 24.738281 36.1875 39.984375 C 35.074219 43.476562 35.101562 47.304688 35.101562 47.304688 L 44.503906 47.167969 C 45.164062 41.074219 48.367188 36.921875 54.9375 37.886719 C 58.757812 38.449219 62.074219 41.488281 60.570312 45.339844 C 59.128906 49.035156 54.738281 48.019531 50.410156 53.375 C 46.644531 58.035156 47.800781 67.871094 47.914062 71.078125 L 56.539062 71.3125 C 56.648438 68.742188 57.027344 64.570312 57.945312 61.296875 C 59.09375 57.222656 64.082031 55.597656 67.316406 54.105469 C 74.730469 50.695312 76.851562 41.285156 69.957031 33.882812 Z M 69.957031 33.882812 " fill-opacity="1" fill-rule="nonzero"/></g><g clip-path="url(#d6afa0f602)"><path fill="#141313" d="M 58.960938 78.445312 C 59.253906 79.316406 59.410156 80.273438 59.335938 81.238281 C 59.265625 82.203125 58.953125 83.15625 58.476562 83.976562 L 58.289062 84.277344 L 58.089844 84.566406 C 58.023438 84.664062 57.941406 84.761719 57.863281 84.859375 L 57.746094 85.003906 C 57.707031 85.050781 57.660156 85.09375 57.621094 85.136719 C 57.285156 85.507812 56.898438 85.8125 56.496094 86.078125 L 56.183594 86.265625 C 56.078125 86.324219 55.972656 86.378906 55.863281 86.433594 C 55.808594 86.460938 55.757812 86.488281 55.703125 86.511719 L 55.539062 86.582031 C 55.425781 86.625 55.316406 86.675781 55.203125 86.710938 C 54.753906 86.871094 54.292969 86.972656 53.824219 87.03125 C 52.746094 87.140625 51.652344 87.09375 50.605469 86.761719 C 50.082031 86.59375 49.574219 86.371094 49.113281 86.058594 C 48.652344 85.753906 48.234375 85.378906 47.890625 84.949219 C 47.734375 84.742188 47.519531 84.472656 47.3125 84.132812 C 47.257812 84.050781 47.210938 83.960938 47.160156 83.867188 C 47.113281 83.773438 47.0625 83.675781 47.007812 83.578125 C 46.960938 83.476562 46.921875 83.371094 46.875 83.265625 C 46.832031 83.15625 46.78125 83.050781 46.746094 82.9375 C 46.714844 82.824219 46.679688 82.707031 46.640625 82.59375 C 46.625 82.535156 46.605469 82.476562 46.59375 82.417969 C 46.582031 82.355469 46.566406 82.296875 46.554688 82.234375 C 46.53125 82.117188 46.507812 81.996094 46.484375 81.871094 C 46.464844 81.75 46.457031 81.625 46.445312 81.503906 C 46.4375 81.378906 46.421875 81.257812 46.421875 81.132812 C 46.421875 81.011719 46.421875 80.890625 46.425781 80.769531 C 46.425781 80.527344 46.460938 80.289062 46.496094 80.058594 C 46.511719 79.957031 46.492188 79.847656 46.738281 79.847656 C 47.007812 79.84375 47.109375 79.949219 47.132812 80.058594 C 47.171875 80.230469 47.199219 80.402344 47.242188 80.570312 C 47.289062 80.738281 47.324219 80.90625 47.355469 81.074219 C 47.464844 81.597656 47.621094 82.109375 47.832031 82.589844 C 48.054688 83.066406 48.339844 83.503906 48.683594 83.886719 C 49.367188 84.652344 50.296875 85.148438 51.277344 85.316406 C 52.3125 85.496094 53.386719 85.390625 54.34375 85.023438 C 54.820312 84.839844 55.265625 84.589844 55.652344 84.277344 L 55.796875 84.160156 L 55.929688 84.03125 C 55.972656 83.988281 56.019531 83.945312 56.0625 83.902344 L 56.179688 83.761719 C 56.265625 83.675781 56.332031 83.574219 56.402344 83.476562 C 56.472656 83.386719 56.539062 83.269531 56.605469 83.164062 C 57.167969 82.210938 57.394531 81.183594 57.242188 80.164062 C 57.167969 79.65625 57.007812 79.152344 56.777344 78.679688 C 56.664062 78.441406 56.527344 78.210938 56.382812 77.996094 C 56.347656 77.941406 56.308594 77.890625 56.273438 77.839844 L 56.136719 77.660156 L 56.015625 77.5 C 55.976562 77.449219 55.933594 77.410156 55.894531 77.363281 C 55.421875 76.84375 54.789062 76.460938 54.09375 76.238281 C 53.398438 76.011719 52.648438 75.945312 51.921875 76.03125 C 51.613281 76.0625 51.183594 76.117188 50.71875 76.253906 C 50.253906 76.386719 49.75 76.609375 49.300781 76.898438 C 48.851562 77.1875 48.460938 77.542969 48.171875 77.847656 C 48.097656 77.921875 48.03125 77.992188 47.972656 78.0625 C 47.910156 78.128906 47.855469 78.1875 47.808594 78.242188 C 47.710938 78.347656 47.648438 78.425781 47.605469 78.457031 C 47.519531 78.523438 47.425781 78.664062 47.132812 78.5 C 46.871094 78.351562 46.890625 78.167969 46.925781 78.039062 L 46.976562 77.863281 L 47.042969 77.695312 C 47.085938 77.582031 47.128906 77.46875 47.179688 77.355469 C 47.289062 77.136719 47.398438 76.917969 47.539062 76.710938 C 48.308594 75.476562 49.597656 74.5 51.074219 74.113281 C 52.542969 73.707031 54.152344 73.851562 55.558594 74.519531 C 55.960938 74.707031 56.347656 74.9375 56.707031 75.210938 C 57.070312 75.488281 57.40625 75.804688 57.699219 76.164062 C 57.769531 76.253906 57.832031 76.339844 57.894531 76.425781 L 57.988281 76.546875 L 58.027344 76.601562 L 58.078125 76.671875 C 58.207031 76.855469 58.324219 77.042969 58.433594 77.234375 C 58.648438 77.617188 58.828125 78.023438 58.960938 78.445312 Z M 75.351562 46.8125 C 75.195312 47.539062 74.949219 48.242188 74.667969 48.933594 L 74.4375 49.441406 C 74.363281 49.613281 74.269531 49.773438 74.183594 49.941406 C 74.015625 50.273438 73.8125 50.585938 73.617188 50.90625 C 72.792969 52.148438 71.769531 53.261719 70.582031 54.152344 C 69.996094 54.605469 69.363281 54.992188 68.714844 55.34375 C 68.390625 55.507812 68.046875 55.6875 67.75 55.816406 C 67.441406 55.953125 67.136719 56.089844 66.839844 56.21875 C 65.644531 56.738281 64.503906 57.226562 63.453125 57.785156 C 63.003906 58.023438 62.488281 58.308594 61.960938 58.652344 C 61.699219 58.820312 61.429688 59.007812 61.175781 59.214844 C 60.917969 59.417969 60.664062 59.636719 60.4375 59.875 C 59.972656 60.355469 59.582031 60.90625 59.328125 61.535156 L 59.277344 61.65625 C 59.261719 61.695312 59.246094 61.75 59.230469 61.796875 L 59.128906 62.09375 C 59.058594 62.289062 59 62.492188 58.933594 62.691406 C 58.808594 63.09375 58.691406 63.5 58.582031 63.902344 C 58.144531 65.511719 57.820312 67.074219 57.585938 68.292969 C 57.351562 69.511719 57.203125 70.390625 57.121094 70.652344 C 57.039062 70.933594 56.980469 71.410156 56.523438 71.300781 C 56.453125 71.28125 56.390625 71.253906 56.339844 71.214844 C 56.257812 71.253906 56.164062 71.273438 56.0625 71.28125 C 55.289062 71.324219 54.515625 71.382812 53.742188 71.382812 L 50.820312 71.378906 L 49.359375 71.375 L 48.519531 71.371094 L 48.078125 71.367188 L 47.742188 71.367188 L 47.6875 71.363281 L 47.65625 71.363281 C 47.648438 71.363281 47.636719 71.367188 47.636719 71.359375 C 47.609375 70.925781 47.578125 70.480469 47.542969 70.03125 L 47.449219 68.894531 C 47.386719 68.160156 47.332031 67.425781 47.289062 66.6875 C 47.203125 65.210938 47.160156 63.730469 47.203125 62.238281 C 47.242188 60.929688 47.359375 59.613281 47.605469 58.304688 C 47.734375 57.648438 47.882812 56.996094 48.089844 56.351562 C 48.296875 55.707031 48.542969 55.070312 48.851562 54.453125 L 49.097656 53.992188 C 49.183594 53.84375 49.28125 53.695312 49.371094 53.546875 C 49.460938 53.394531 49.570312 53.257812 49.671875 53.113281 L 49.828125 52.898438 L 49.984375 52.703125 C 50.402344 52.175781 50.855469 51.671875 51.339844 51.195312 C 52.304688 50.242188 53.410156 49.414062 54.570312 48.726562 C 55.203125 48.34375 55.851562 48.011719 56.472656 47.6875 C 56.785156 47.523438 57.085938 47.363281 57.375 47.199219 C 57.660156 47.035156 57.929688 46.867188 58.171875 46.691406 C 58.660156 46.335938 59.027344 45.953125 59.285156 45.484375 C 59.324219 45.429688 59.347656 45.367188 59.378906 45.304688 C 59.40625 45.246094 59.4375 45.1875 59.460938 45.121094 L 59.539062 44.925781 L 59.605469 44.722656 C 59.6875 44.449219 59.753906 44.175781 59.777344 43.90625 C 59.800781 43.636719 59.804688 43.371094 59.765625 43.109375 C 59.730469 42.851562 59.667969 42.597656 59.574219 42.351562 C 59.386719 41.859375 59.074219 41.402344 58.679688 40.996094 C 57.886719 40.1875 56.765625 39.617188 55.59375 39.335938 C 55.375 39.285156 55.15625 39.242188 54.933594 39.210938 L 54.769531 39.1875 C 54.710938 39.179688 54.652344 39.175781 54.59375 39.167969 L 54.238281 39.132812 C 53.769531 39.101562 53.300781 39.074219 52.847656 39.101562 C 51.933594 39.140625 51.066406 39.328125 50.285156 39.660156 C 49.507812 40.003906 48.820312 40.5 48.242188 41.136719 C 47.667969 41.777344 47.191406 42.539062 46.828125 43.390625 C 46.636719 43.835938 46.417969 44.398438 46.214844 45.0625 C 46.164062 45.226562 46.117188 45.398438 46.070312 45.574219 C 46.019531 45.75 45.976562 45.933594 45.929688 46.121094 L 45.914062 46.1875 L 45.90625 46.222656 L 45.902344 46.242188 C 45.902344 46.238281 45.894531 46.277344 45.890625 46.292969 C 45.875 46.390625 45.859375 46.488281 45.84375 46.585938 C 45.8125 46.78125 45.777344 46.976562 45.746094 47.171875 C 45.683594 47.558594 45.625 47.953125 45.5625 48.347656 C 45.113281 48.339844 44.660156 48.332031 44.203125 48.324219 C 43.984375 48.320312 43.761719 48.316406 43.535156 48.308594 L 43.371094 48.304688 L 43.304688 48.304688 L 43.257812 48.300781 L 43.074219 48.292969 C 42.585938 48.265625 42.09375 48.238281 41.613281 48.210938 C 40.648438 48.15625 39.714844 48.097656 38.886719 48.039062 C 37.222656 47.921875 35.964844 47.808594 35.664062 47.742188 C 35.429688 47.691406 35.042969 47.667969 35.109375 47.292969 C 35.125 47.199219 35.167969 47.125 35.222656 47.066406 C 35.167969 46.964844 35.140625 46.839844 35.136719 46.714844 C 35.085938 45.753906 35.078125 44.78125 35.175781 43.820312 C 35.339844 42.304688 35.617188 40.792969 36.097656 39.332031 C 36.339844 38.601562 36.621094 37.882812 36.953125 37.183594 C 37.289062 36.488281 37.667969 35.8125 38.089844 35.164062 C 38.9375 33.863281 39.984375 32.691406 41.160156 31.671875 C 42.339844 30.648438 43.664062 29.800781 45.0625 29.109375 C 46.542969 28.382812 48.117188 27.851562 49.730469 27.503906 C 51.34375 27.160156 52.992188 26.992188 54.640625 26.980469 C 56.289062 26.964844 57.9375 27.113281 59.566406 27.40625 C 61.195312 27.703125 62.800781 28.144531 64.363281 28.746094 C 66.078125 29.410156 67.738281 30.289062 69.234375 31.449219 C 69.417969 31.597656 69.609375 31.738281 69.785156 31.894531 L 70.058594 32.128906 L 70.324219 32.367188 C 70.5 32.527344 70.667969 32.699219 70.839844 32.867188 C 71.011719 33.035156 71.160156 33.210938 71.324219 33.382812 C 71.648438 33.71875 71.941406 34.09375 72.242188 34.457031 C 72.527344 34.835938 72.820312 35.207031 73.074219 35.613281 C 73.347656 36.003906 73.582031 36.421875 73.824219 36.835938 L 74.15625 37.476562 C 74.265625 37.6875 74.355469 37.914062 74.457031 38.132812 C 74.84375 39.019531 75.152344 39.949219 75.363281 40.90625 C 75.785156 42.820312 75.800781 44.855469 75.351562 46.8125 Z M 72.105469 40.125 C 71.480469 38.257812 70.375 36.539062 68.980469 35.082031 C 67.632812 33.644531 65.929688 32.535156 64.09375 31.691406 C 63.171875 31.273438 62.222656 30.914062 61.242188 30.628906 C 60.757812 30.480469 60.261719 30.355469 59.765625 30.238281 C 59.265625 30.128906 58.765625 30.019531 58.261719 29.941406 C 56.246094 29.601562 54.191406 29.496094 52.152344 29.613281 C 49.792969 29.757812 47.46875 30.355469 45.378906 31.378906 C 43.285156 32.402344 41.441406 33.855469 39.960938 35.636719 C 39.613281 36.058594 39.179688 36.652344 38.753906 37.394531 C 38.324219 38.140625 37.898438 39.035156 37.53125 40.039062 C 37.339844 40.535156 37.1875 41.058594 37.027344 41.605469 C 36.878906 42.152344 36.738281 42.714844 36.617188 43.292969 C 36.371094 44.445312 36.171875 45.636719 36.019531 46.78125 C 36.015625 46.796875 36.015625 46.8125 36.011719 46.828125 C 36.960938 46.730469 37.910156 46.660156 38.859375 46.605469 C 39.800781 46.550781 40.742188 46.503906 41.679688 46.457031 L 43.09375 46.390625 L 43.269531 46.382812 C 43.304688 46.382812 43.304688 46.378906 43.320312 46.378906 L 43.359375 46.375 L 43.503906 46.363281 C 43.597656 46.355469 43.695312 46.351562 43.777344 46.335938 C 43.785156 46.226562 43.789062 46.121094 43.800781 46.019531 L 43.816406 45.867188 L 43.878906 45.46875 C 43.972656 44.933594 44.082031 44.402344 44.234375 43.875 C 44.523438 42.824219 44.945312 41.78125 45.539062 40.8125 C 46.136719 39.851562 46.914062 38.953125 47.875 38.28125 C 48.351562 37.941406 48.867188 37.652344 49.402344 37.421875 C 49.9375 37.191406 50.496094 37.027344 51.058594 36.90625 C 51.996094 36.714844 52.941406 36.648438 53.867188 36.691406 C 54.097656 36.703125 54.332031 36.710938 54.558594 36.734375 L 54.902344 36.769531 C 55.015625 36.78125 55.132812 36.792969 55.25 36.8125 C 55.726562 36.882812 56.195312 36.980469 56.65625 37.117188 C 57.578125 37.394531 58.472656 37.804688 59.285156 38.375 C 60.09375 38.945312 60.832031 39.6875 61.351562 40.613281 C 61.621094 41.089844 61.835938 41.613281 61.964844 42.160156 C 62.097656 42.707031 62.148438 43.277344 62.117188 43.832031 C 62.085938 44.390625 61.976562 44.933594 61.816406 45.445312 C 61.65625 45.953125 61.425781 46.476562 61.113281 46.953125 C 60.800781 47.429688 60.40625 47.859375 59.988281 48.210938 C 59.570312 48.566406 59.136719 48.847656 58.710938 49.097656 C 57.859375 49.589844 57.058594 49.957031 56.3125 50.359375 C 55.5625 50.753906 54.867188 51.171875 54.222656 51.648438 C 53.570312 52.121094 52.96875 52.652344 52.40625 53.234375 C 52.265625 53.375 52.128906 53.527344 51.992188 53.675781 C 51.855469 53.824219 51.726562 53.984375 51.59375 54.136719 L 51.496094 54.253906 L 51.410156 54.363281 L 51.246094 54.582031 C 51.136719 54.730469 51.035156 54.890625 50.929688 55.042969 C 50.535156 55.6875 50.207031 56.40625 49.929688 57.167969 C 49.609375 58.050781 49.386719 58.992188 49.230469 59.953125 C 49.078125 60.917969 48.980469 61.902344 48.929688 62.894531 C 48.824219 64.882812 48.875 66.894531 48.917969 68.933594 C 48.917969 69.0625 48.921875 69.203125 48.925781 69.355469 C 48.929688 69.433594 48.933594 69.511719 48.9375 69.59375 C 48.9375 69.632812 48.941406 69.675781 48.941406 69.71875 C 48.941406 69.734375 48.941406 69.730469 48.941406 69.734375 L 48.941406 69.753906 C 48.941406 69.835938 48.9375 69.925781 48.9375 70.023438 C 48.996094 70.03125 49.0625 70.035156 49.132812 70.042969 L 49.1875 70.046875 L 49.214844 70.050781 L 49.230469 70.050781 L 49.277344 70.054688 C 49.4375 70.058594 49.597656 70.066406 49.761719 70.074219 C 50.414062 70.101562 51.105469 70.136719 51.8125 70.179688 C 53.207031 70.265625 54.667969 70.382812 56.046875 70.554688 C 56.039062 70.492188 56.039062 70.429688 56.035156 70.371094 C 56 69.101562 56.039062 67.824219 56.140625 66.546875 C 56.21875 65.609375 56.324219 64.667969 56.464844 63.726562 L 56.578125 63.023438 L 56.707031 62.316406 C 56.757812 62.082031 56.804688 61.847656 56.855469 61.613281 L 56.941406 61.257812 C 56.96875 61.140625 56.992188 61.03125 57.03125 60.894531 C 57.175781 60.375 57.378906 59.867188 57.636719 59.394531 C 57.894531 58.917969 58.199219 58.480469 58.539062 58.074219 C 59.21875 57.265625 60.011719 56.601562 60.835938 56.042969 C 62.488281 54.917969 64.261719 54.152344 65.933594 53.394531 C 66.789062 53.011719 67.511719 52.65625 68.210938 52.1875 C 68.902344 51.726562 69.539062 51.191406 70.101562 50.589844 C 71.378906 49.210938 72.234375 47.476562 72.542969 45.648438 C 72.867188 43.820312 72.6875 41.917969 72.105469 40.125 Z M 72.105469 40.125 " fill-opacity="1" fill-rule="nonzero"/></g></svg>