<svg xmlns="http://www.w3.org/2000/svg" xmlns:xlink="http://www.w3.org/1999/xlink" width="150" zoomAndPan="magnify" viewBox="0 0 112.5 112.499997" height="150" preserveAspectRatio="xMidYMid meet" version="1.0"><defs><clipPath id="0a7f7d1b3c"><path d="M 0 0 L 112.003906 0 L 112.003906 112.003906 L 0 112.003906 Z M 0 0 " clip-rule="nonzero"/></clipPath><clipPath id="336b4903fc"><path d="M 56 0 C 25.074219 0 0 25.074219 0 56 C 0 86.929688 25.074219 112.003906 56 112.003906 C 86.929688 112.003906 112.003906 86.929688 112.003906 56 C 112.003906 25.074219 86.929688 0 56 0 Z M 56 0 " clip-rule="nonzero"/></clipPath><clipPath id="dcec1a3bba"><path d="M 5.089844 5.089844 L 106.910156 5.089844 L 106.910156 106.910156 L 5.089844 106.910156 Z M 5.089844 5.089844 " clip-rule="nonzero"/></clipPath><clipPath id="cf9b209a6b"><path d="M 56 5.089844 C 27.882812 5.089844 5.089844 27.882812 5.089844 56 C 5.089844 84.117188 27.882812 106.910156 56 106.910156 C 84.117188 106.910156 106.910156 84.117188 106.910156 56 C 106.910156 27.882812 84.117188 5.089844 56 5.089844 Z M 56 5.089844 " clip-rule="nonzero"/></clipPath><clipPath id="f520bced3a"><path d="M 25.453125 30.671875 L 86.546875 30.671875 L 86.546875 81.582031 L 25.453125 81.582031 Z M 25.453125 30.671875 " clip-rule="nonzero"/></clipPath></defs><g clip-path="url(#0a7f7d1b3c)"><g clip-path="url(#336b4903fc)"><path fill="#ffffff" d="M 0 0 L 112.003906 0 L 112.003906 112.003906 L 0 112.003906 Z M 0 0 " fill-opacity="1" fill-rule="nonzero"/><path stroke-linecap="butt" transform="matrix(1.018202, 0, 0, 1.018202, 0.0000015, 0.000000995575)" fill="none" stroke-linejoin="miter" d="M 54.998918 -0.000000977778 C 24.625979 -0.000000977778 -0.00000147319 24.62598 -0.00000147319 54.998918 C -0.00000147319 85.375693 24.625979 110.001674 54.998918 110.001674 C 85.375692 110.001674 110.001673 85.375693 110.001673 54.998918 C 110.001673 24.62598 85.375692 -0.000000977778 54.998918 -0.000000977778 Z M 54.998918 -0.000000977778 " stroke="#75d481" stroke-width="2.933333" stroke-opacity="1" stroke-miterlimit="4"/></g></g><g clip-path="url(#dcec1a3bba)"><g clip-path="url(#cf9b209a6b)"><path fill="#75d481" d="M 5.089844 5.089844 L 106.910156 5.089844 L 106.910156 106.910156 L 5.089844 106.910156 Z M 5.089844 5.089844 " fill-opacity="1" fill-rule="nonzero"/></g></g><g clip-path="url(#f520bced3a)"><path fill="#5e3528" d="M 36.691406 66.3125 C 35.046875 66.417969 33.273438 66.214844 31.785156 67.066406 C 30.515625 67.761719 29.871094 69.351562 30.246094 70.746094 C 30.601562 72.117188 31.496094 73.234375 32.648438 74.023438 C 34.246094 75.121094 36.222656 75.761719 38.105469 76.136719 C 39.707031 76.464844 41.257812 76.414062 42.882812 76.351562 C 44.117188 76.300781 45.34375 76.171875 46.546875 75.898438 C 48.210938 75.527344 49.996094 75.582031 51.671875 75.871094 C 53.773438 76.242188 55.90625 76.898438 58.0625 76.792969 C 60.113281 76.671875 62.097656 75.921875 63.820312 74.8125 C 64.292969 74.5 64.703125 74.027344 65.089844 73.609375 C 65.640625 73.742188 66.191406 73.871094 66.742188 74.007812 C 66.382812 75.285156 66.332031 76.792969 67.070312 77.953125 C 67.507812 78.695312 68.332031 79.101562 69.074219 79.46875 C 71.101562 80.390625 73.242188 81.035156 75.433594 81.421875 C 76.371094 81.582031 77.285156 81.414062 78.128906 80.992188 C 79.84375 80.152344 81.183594 78.671875 82.265625 77.125 C 84.632812 73.714844 85.894531 69.613281 86.320312 65.503906 C 86.546875 62.824219 86.386719 59.949219 85.347656 57.441406 C 85.210938 57.0625 84.816406 56.90625 84.5 56.714844 C 82.574219 55.6875 80.445312 54.984375 78.390625 54.261719 C 77.316406 53.902344 76.058594 53.394531 74.914062 53.660156 C 74.296875 53.941406 73.757812 54.433594 73.210938 54.832031 C 73.074219 53.878906 72.988281 52.980469 72.585938 52.089844 C 72.175781 51.179688 71.65625 50.289062 71.082031 49.476562 C 69.820312 47.746094 68.207031 46.605469 66.71875 45.0625 C 65.445312 43.75 64.230469 42.441406 63.351562 40.816406 C 61.769531 38.542969 60.957031 35.914062 59.425781 33.617188 C 58.855469 32.683594 58.171875 31.867188 57.183594 31.367188 C 55.839844 30.675781 54.019531 30.726562 52.804688 31.675781 C 51.785156 32.46875 51.1875 33.621094 50.890625 34.863281 C 50.363281 37.046875 50.730469 39.347656 51.417969 41.453125 C 51.714844 42.425781 52.203125 43.296875 52.652344 44.203125 C 50.621094 42.726562 48.664062 41.152344 46.851562 39.410156 C 44.507812 37.347656 42.589844 35.175781 39.972656 33.414062 C 38.925781 32.714844 37.628906 32.480469 36.414062 32.808594 C 35.039062 33.261719 34.058594 34.53125 33.898438 35.964844 C 33.683594 37.839844 34.425781 39.746094 35.457031 41.277344 C 36.511719 42.898438 37.859375 44.195312 39.1875 45.578125 C 36.769531 44.359375 34.203125 42.492188 31.539062 41.910156 C 30.003906 41.570312 28.003906 41.75 26.855469 42.949219 C 25.664062 44.253906 25.683594 46.105469 26.378906 47.652344 C 27.207031 49.570312 28.8125 50.789062 30.449219 51.984375 C 33.222656 53.921875 36.554688 55.273438 39.609375 56.691406 C 37.335938 56.261719 35.089844 55.648438 32.859375 55.023438 C 31.578125 54.675781 30.40625 54.300781 29.054688 54.390625 C 27.183594 54.46875 25.582031 56.226562 25.570312 58.089844 C 25.460938 60.402344 27.042969 62.511719 28.9375 63.671875 C 31.203125 65.109375 34.105469 65.761719 36.691406 66.3125 Z M 36.691406 66.3125 " fill-opacity="1" fill-rule="nonzero"/></g><path fill="#ffe3d4" d="M 42.746094 66.183594 C 43.917969 66.40625 45.011719 66.503906 46.132812 66.917969 C 45.089844 67.332031 43.914062 67.390625 42.777344 67.566406 C 40.316406 67.582031 37.839844 67.664062 35.382812 67.8125 C 34.449219 67.890625 33.265625 67.953125 32.519531 68.585938 C 32.144531 68.898438 32.042969 69.3125 31.941406 69.769531 C 32.132812 69.957031 32.316406 70.140625 32.503906 70.320312 C 32.316406 70.140625 32.132812 69.957031 31.941406 69.769531 C 32.046875 70.664062 32.40625 71.421875 33.085938 72.015625 C 34.316406 73.101562 36.050781 73.695312 37.613281 74.101562 C 39.769531 74.679688 41.839844 74.574219 44.042969 74.546875 C 46.246094 74.46875 48.453125 74.136719 50.660156 74.136719 C 53.351562 74.148438 56.3125 75.304688 58.933594 74.75 C 60.355469 74.453125 61.808594 73.886719 62.941406 72.960938 C 64.238281 71.820312 65.164062 70.234375 65.566406 68.558594 C 65.878906 67.3125 65.84375 66.101562 65.976562 64.84375 C 65.9375 64.773438 65.898438 64.703125 65.855469 64.636719 C 65.898438 64.703125 65.9375 64.773438 65.976562 64.84375 C 66.449219 65.609375 66.734375 66.378906 66.859375 67.269531 C 67.007812 68.867188 66.738281 70.398438 66.1875 71.894531 C 67.851562 72.421875 69.511719 72.929688 71.132812 73.585938 C 72.691406 71.046875 73.847656 68.179688 74.605469 65.296875 C 75.140625 63.660156 75.492188 61.933594 75.566406 60.210938 C 74.496094 60.027344 73.621094 59.527344 72.648438 59.085938 C 72.089844 60.148438 71.5 60.808594 70.5 61.46875 C 70.835938 59.988281 71.421875 58.648438 71.46875 57.101562 C 71.628906 55.21875 71.210938 53.527344 70.175781 51.953125 C 68.792969 49.625 66.800781 48.351562 65.023438 46.371094 C 63.464844 44.742188 62.234375 42.882812 61.082031 40.949219 C 59.539062 38.613281 58.824219 36.199219 57.109375 33.984375 C 56.648438 33.40625 56.039062 33.105469 55.316406 33 C 54.578125 32.941406 53.902344 33.332031 53.507812 33.945312 C 52.714844 35.136719 52.597656 36.699219 52.703125 38.089844 C 52.9375 40.652344 53.910156 43.144531 55.59375 45.089844 C 56.390625 46.058594 57.304688 47.039062 57.734375 48.238281 C 57.957031 48.917969 58.242188 49.496094 58.039062 50.230469 C 57.238281 53.847656 57.011719 57.777344 58.589844 61.222656 C 57.796875 60.34375 57.128906 59.367188 56.683594 58.261719 C 55.574219 55.339844 55.480469 52.125 56.472656 49.15625 C 54.769531 48.300781 53.296875 47.132812 51.773438 46 C 50.25 44.851562 48.726562 43.738281 47.285156 42.492188 C 45.332031 40.746094 43.398438 38.96875 41.507812 37.15625 C 40.488281 36.328125 39.476562 35.269531 38.265625 34.738281 C 37.453125 34.417969 36.824219 34.636719 36.191406 35.1875 C 35.523438 36.300781 35.660156 37.542969 36.046875 38.722656 C 36.546875 40.179688 37.542969 41.53125 38.523438 42.699219 C 41.230469 45.898438 44.699219 48.632812 48.09375 51.0625 C 48.5 51.359375 48.949219 51.648438 49.285156 52.019531 C 49.203125 52.238281 49.09375 52.445312 48.992188 52.65625 C 48.238281 52.261719 47.492188 51.855469 46.765625 51.414062 C 46.214844 50.984375 45.644531 50.585938 45.058594 50.207031 C 44.128906 49.601562 43.09375 49.214844 42.140625 48.644531 C 39.816406 47.261719 37.296875 46.148438 34.839844 45.027344 C 33.332031 44.382812 31.5 43.542969 29.835938 43.722656 C 29.230469 43.820312 28.550781 43.925781 28.140625 44.4375 C 27.699219 44.984375 27.691406 45.773438 27.832031 46.433594 C 28.121094 47.664062 28.898438 48.660156 29.804688 49.5 C 32.097656 51.671875 35.097656 53.226562 37.886719 54.679688 C 40.023438 55.734375 42.175781 56.824219 44.382812 57.726562 C 45.117188 58.03125 45.851562 58.332031 46.542969 58.722656 C 46.238281 58.878906 45.960938 59.046875 45.609375 59.066406 C 44.5 59.148438 43.359375 58.921875 42.253906 58.824219 C 42.363281 58.867188 42.472656 58.914062 42.582031 58.957031 C 42.472656 58.914062 42.363281 58.867188 42.253906 58.824219 C 38.679688 58.191406 35.125 57.554688 31.605469 56.667969 C 30.558594 56.449219 29.378906 56.097656 28.367188 56.625 C 28.375 56.714844 28.378906 56.800781 28.386719 56.886719 C 28.378906 56.800781 28.375 56.714844 28.367188 56.625 C 27.992188 56.996094 27.640625 57.378906 27.558594 57.925781 C 27.375 59.175781 27.976562 60.367188 28.808594 61.257812 C 30.035156 62.550781 31.734375 63.289062 33.367188 63.910156 C 36.4375 65.0625 39.542969 65.585938 42.746094 66.183594 Z M 33.84375 71.425781 C 34.011719 71.527344 34.183594 71.625 34.371094 71.707031 C 34.183594 71.625 34.011719 71.527344 33.84375 71.425781 Z M 68.414062 58.566406 C 68.355469 58.738281 68.285156 58.90625 68.210938 59.066406 C 68.285156 58.90625 68.355469 58.738281 68.414062 58.566406 Z M 67.078125 69.324219 C 67.253906 69.425781 67.445312 69.503906 67.644531 69.5625 C 67.445312 69.503906 67.253906 69.425781 67.078125 69.324219 C 67.058594 69.285156 67.042969 69.242188 67.027344 69.203125 C 67.042969 69.242188 67.058594 69.285156 67.078125 69.324219 Z M 65.34375 61.398438 C 65.390625 61.429688 65.433594 61.457031 65.476562 61.488281 C 65.433594 61.457031 65.390625 61.429688 65.34375 61.398438 Z M 64.761719 49.765625 C 64.90625 49.945312 65.050781 50.121094 65.199219 50.289062 C 65.050781 50.121094 64.90625 49.945312 64.761719 49.765625 C 64.558594 49.511719 64.351562 49.265625 64.140625 49.019531 C 64.351562 49.265625 64.558594 49.511719 64.761719 49.765625 Z M 62.1875 46.878906 C 62.515625 47.234375 62.84375 47.585938 63.171875 47.941406 C 62.84375 47.585938 62.515625 47.234375 62.1875 46.878906 C 62.089844 46.773438 61.996094 46.664062 61.902344 46.558594 C 61.996094 46.664062 62.089844 46.773438 62.1875 46.878906 Z M 40.222656 42.308594 C 40.496094 42.605469 40.773438 42.898438 41.0625 43.183594 C 40.773438 42.898438 40.496094 42.605469 40.222656 42.308594 Z M 41.949219 44.027344 C 42.21875 44.269531 42.496094 44.507812 42.773438 44.742188 C 42.496094 44.507812 42.21875 44.269531 41.949219 44.027344 Z M 29.175781 45.820312 C 29.15625 45.773438 29.140625 45.726562 29.128906 45.679688 C 29.140625 45.726562 29.15625 45.773438 29.175781 45.820312 C 29.207031 45.882812 29.234375 45.941406 29.265625 46.003906 C 29.234375 45.941406 29.207031 45.882812 29.175781 45.820312 Z M 47.757812 70.890625 C 47.804688 71.023438 47.84375 71.160156 47.867188 71.296875 C 47.84375 71.160156 47.804688 71.023438 47.757812 70.890625 Z M 56.558594 61.386719 C 56.613281 61.496094 56.664062 61.605469 56.71875 61.714844 C 56.578125 61.792969 56.4375 61.867188 56.296875 61.949219 C 56.4375 61.867188 56.578125 61.792969 56.71875 61.714844 C 56.664062 61.605469 56.613281 61.496094 56.558594 61.386719 Z M 55.074219 60.726562 C 54.972656 60.773438 54.875 60.824219 54.777344 60.878906 C 54.875 60.824219 54.972656 60.773438 55.074219 60.726562 Z M 55.914062 72.605469 C 56.164062 72.613281 56.410156 72.613281 56.65625 72.601562 C 56.410156 72.613281 56.164062 72.613281 55.914062 72.605469 C 55.292969 72.617188 54.671875 72.578125 54.074219 72.472656 C 54.671875 72.578125 55.292969 72.617188 55.914062 72.605469 Z M 49.25 54.113281 C 49.828125 53.023438 50.71875 51.59375 52.078125 51.492188 C 51.179688 52.449219 50.628906 53.8125 50.1875 55.035156 C 49.359375 57.535156 48.882812 60.132812 48.71875 62.761719 C 48.617188 64.398438 48.464844 66.128906 48.761719 67.746094 C 48.40625 67.324219 48.230469 66.835938 48.097656 66.304688 C 47.039062 62.308594 47.433594 57.832031 49.25 54.113281 Z M 47.371094 54.527344 C 47.359375 54.59375 47.347656 54.664062 47.335938 54.730469 C 47.347656 54.664062 47.359375 54.59375 47.371094 54.527344 Z M 47.300781 72.859375 C 47.367188 72.859375 47.425781 72.847656 47.476562 72.828125 C 47.425781 72.847656 47.367188 72.859375 47.300781 72.859375 C 46.226562 73.042969 45.125 73.066406 44.042969 73.160156 C 43.730469 73.175781 43.417969 73.191406 43.105469 73.199219 C 43.417969 73.191406 43.730469 73.175781 44.042969 73.160156 C 45.125 73.066406 46.226562 73.042969 47.300781 72.859375 Z M 46.121094 62.707031 C 46.128906 62.664062 46.132812 62.621094 46.132812 62.578125 C 46.132812 62.621094 46.128906 62.664062 46.121094 62.707031 C 46.117188 62.746094 46.109375 62.78125 46.101562 62.816406 C 46.109375 62.78125 46.117188 62.746094 46.121094 62.707031 Z M 28.859375 58.863281 C 28.800781 58.761719 28.75 58.660156 28.707031 58.5625 C 28.75 58.660156 28.800781 58.761719 28.859375 58.863281 C 29.015625 59.136719 29.210938 59.378906 29.429688 59.589844 C 29.210938 59.378906 29.015625 59.136719 28.859375 58.863281 Z M 28.859375 58.863281 " fill-opacity="1" fill-rule="nonzero"/><path fill="#6d6d6d" d="M 75.800781 56.25 C 77.019531 56.996094 77.082031 58.339844 77.195312 59.628906 C 77.265625 62.238281 76.6875 64.890625 75.886719 67.363281 C 75.578125 68.386719 75.027344 69.324219 75.066406 70.386719 C 75.074219 71.535156 75.417969 72.816406 76.152344 73.714844 C 77.035156 74.789062 78.589844 74.886719 79.8125 74.441406 C 81.363281 73.742188 82.269531 72.25 82.921875 70.746094 C 84.273438 67.804688 84.707031 64.402344 84.425781 61.191406 C 84.296875 60.3125 84.140625 59.308594 83.65625 58.550781 C 83.496094 58.269531 83.234375 58.210938 82.960938 58.085938 C 80.679688 57.199219 78.425781 56.3125 76.113281 55.515625 C 75.707031 55.339844 75.378906 55.605469 75.015625 55.765625 C 74.308594 56.140625 73.796875 56.710938 73.335938 57.351562 C 74.136719 57.742188 74.949219 58.097656 75.796875 58.363281 C 75.945312 57.652344 75.847656 56.964844 75.800781 56.25 Z M 78.378906 67.546875 C 79.351562 67.136719 80.496094 67.5 81.101562 68.347656 C 82.085938 69.746094 81.539062 71.972656 79.898438 72.597656 C 78.707031 73.097656 77.320312 72.4375 76.847656 71.257812 C 76.257812 69.851562 76.984375 68.121094 78.378906 67.546875 Z M 78.378906 67.546875 " fill-opacity="1" fill-rule="nonzero"/><path fill="#ffffff" d="M 78.253906 71.417969 C 78.761719 71.84375 79.511719 71.746094 79.96875 71.292969 C 80.699219 70.613281 80.722656 69.375 79.984375 68.691406 C 79.570312 68.257812 78.894531 68.214844 78.390625 68.515625 C 77.398438 69.140625 77.347656 70.6875 78.253906 71.417969 Z M 78.253906 71.417969 " fill-opacity="1" fill-rule="nonzero"/><path fill="#6d6d6d" d="M 76.121094 74.929688 C 74.898438 74.074219 74.511719 72.769531 74.207031 71.378906 C 73.300781 72.992188 72.351562 74.496094 70.875 75.652344 C 70.328125 76.085938 69.695312 76.277344 69.03125 76.457031 C 69.410156 76.011719 69.769531 75.554688 70.097656 75.070312 C 69.566406 74.90625 69.035156 74.734375 68.503906 74.566406 C 68.3125 75.359375 68.125 76.113281 68.292969 76.9375 C 68.40625 77.179688 68.742188 77.304688 68.957031 77.4375 C 71.003906 78.476562 73.234375 79.175781 75.46875 79.660156 C 76.03125 79.8125 76.652344 79.464844 77.136719 79.203125 C 78.890625 78.183594 80.148438 76.429688 81.214844 74.742188 C 79.671875 75.707031 77.683594 76.007812 76.121094 74.929688 Z M 76.121094 74.929688 " fill-opacity="1" fill-rule="nonzero"/><path fill="#e5b1a3" d="M 56.957031 35.3125 C 57.527344 36.632812 57.847656 38.058594 58.332031 39.414062 C 58.773438 40.648438 59.164062 41.914062 59.710938 43.105469 C 60.371094 44.476562 61.15625 45.757812 62.1875 46.878906 C 63.058594 47.828125 63.953125 48.753906 64.761719 49.765625 C 65.90625 51.214844 67.214844 52.21875 68.046875 53.894531 C 68.949219 55.6875 68.988281 58.160156 67.765625 59.816406 C 67.140625 60.675781 66.273438 60.980469 65.34375 61.398438 C 66.054688 61.867188 66.753906 62.269531 67.621094 62.320312 C 68.675781 62.425781 69.648438 62.070312 70.5 61.46875 C 70.835938 59.988281 71.421875 58.648438 71.46875 57.101562 C 71.628906 55.21875 71.210938 53.527344 70.175781 51.953125 C 68.792969 49.625 66.800781 48.351562 65.023438 46.371094 C 63.464844 44.742188 62.234375 42.882812 61.082031 40.949219 C 59.539062 38.613281 58.824219 36.199219 57.109375 33.984375 C 56.648438 33.40625 56.039062 33.105469 55.316406 33 C 56.007812 33.660156 56.578125 34.425781 56.957031 35.3125 Z M 56.957031 35.3125 " fill-opacity="1" fill-rule="nonzero"/><path fill="#e5b1a3" d="M 42.746094 66.183594 C 43.917969 66.40625 45.011719 66.503906 46.132812 66.917969 C 45.089844 67.332031 43.914062 67.390625 42.777344 67.566406 C 44.039062 67.90625 45.371094 68.132812 46.382812 69.019531 C 47.210938 69.742188 47.992188 70.773438 47.910156 71.9375 C 47.867188 72.308594 47.773438 72.855469 47.300781 72.859375 C 46.226562 73.042969 45.125 73.066406 44.042969 73.160156 C 40.691406 73.324219 37.425781 73.261719 34.371094 71.707031 C 33.386719 71.257812 32.703125 70.511719 31.941406 69.769531 C 32.046875 70.664062 32.40625 71.421875 33.085938 72.015625 C 34.316406 73.101562 36.050781 73.695312 37.613281 74.101562 C 39.769531 74.679688 41.839844 74.574219 44.042969 74.546875 C 46.246094 74.46875 48.453125 74.136719 50.660156 74.136719 C 53.351562 74.148438 56.3125 75.304688 58.933594 74.75 C 60.355469 74.453125 61.808594 73.886719 62.941406 72.960938 C 64.238281 71.820312 65.164062 70.234375 65.566406 68.558594 C 65.878906 67.3125 65.84375 66.101562 65.976562 64.84375 C 65.339844 63.71875 64.574219 62.703125 63.535156 61.921875 C 64.070312 63.773438 64.109375 65.664062 63.777344 67.550781 C 63.492188 68.9375 62.6875 70.148438 61.554688 70.980469 C 59.914062 72.160156 57.921875 72.675781 55.914062 72.605469 C 53.921875 72.652344 51.976562 72.128906 50.480469 70.765625 C 49.582031 69.945312 49.199219 68.855469 48.761719 67.746094 C 48.40625 67.324219 48.230469 66.835938 48.097656 66.304688 C 47.039062 62.308594 47.433594 57.832031 49.25 54.113281 C 49.828125 53.023438 50.71875 51.59375 52.078125 51.492188 C 52.664062 50.941406 53.175781 50.367188 53.566406 49.660156 C 52.238281 49.148438 50.828125 49.136719 49.492188 48.6875 C 47.695312 48.128906 46.203125 47.148438 44.632812 46.132812 C 42.054688 44.398438 39.882812 42.160156 38.042969 39.65625 C 37.070312 38.3125 36.308594 36.878906 36.191406 35.1875 C 35.523438 36.300781 35.660156 37.542969 36.046875 38.722656 C 36.546875 40.179688 37.542969 41.53125 38.523438 42.699219 C 41.230469 45.898438 44.699219 48.632812 48.09375 51.0625 C 48.5 51.359375 48.949219 51.648438 49.285156 52.019531 C 49.203125 52.238281 49.09375 52.445312 48.992188 52.65625 C 48.238281 52.261719 47.492188 51.855469 46.765625 51.414062 C 47.023438 51.949219 47.292969 52.507812 47.429688 53.089844 C 47.554688 53.636719 47.425781 54.183594 47.335938 54.730469 C 44.414062 54.402344 41.695312 53.332031 39.007812 52.183594 C 36.417969 51.003906 33.871094 49.753906 31.46875 48.21875 C 30.59375 47.613281 29.621094 46.8125 29.175781 45.820312 C 28.855469 45.066406 29.453125 44.324219 29.835938 43.722656 C 29.230469 43.820312 28.550781 43.925781 28.140625 44.4375 C 27.699219 44.984375 27.691406 45.773438 27.832031 46.433594 C 28.121094 47.664062 28.898438 48.660156 29.804688 49.5 C 32.097656 51.671875 35.097656 53.226562 37.886719 54.679688 C 40.023438 55.734375 42.175781 56.824219 44.382812 57.726562 C 45.117188 58.03125 45.851562 58.332031 46.542969 58.722656 C 46.238281 58.878906 45.960938 59.046875 45.609375 59.066406 C 44.5 59.148438 43.359375 58.921875 42.253906 58.824219 C 43.410156 59.285156 44.570312 59.859375 45.40625 60.808594 C 45.847656 61.316406 46.214844 62.015625 46.121094 62.707031 C 46.058594 63.09375 45.832031 63.546875 45.398438 63.59375 C 44.765625 63.695312 44.101562 63.660156 43.457031 63.648438 C 40.535156 63.558594 37.6875 62.996094 34.878906 62.199219 C 33.585938 61.8125 32.332031 61.285156 31.117188 60.699219 C 30.234375 60.257812 29.363281 59.746094 28.859375 58.863281 C 28.445312 58.152344 28.425781 57.425781 28.367188 56.625 C 27.992188 56.996094 27.640625 57.378906 27.558594 57.925781 C 27.375 59.175781 27.976562 60.367188 28.808594 61.257812 C 30.035156 62.550781 31.734375 63.289062 33.367188 63.910156 C 36.4375 65.0625 39.542969 65.585938 42.746094 66.183594 Z M 42.746094 66.183594 " fill-opacity="1" fill-rule="nonzero"/><path fill="#e5b1a3" d="M 56.71875 61.714844 C 56.503906 61.277344 56.292969 60.839844 56.050781 60.417969 C 55.121094 60.589844 54.363281 61.042969 53.714844 61.726562 C 52.414062 63.070312 51.519531 64.78125 51.199219 66.632812 C 52.671875 64.492188 54.4375 62.9375 56.71875 61.714844 Z M 56.71875 61.714844 " fill-opacity="1" fill-rule="nonzero"/><path fill="#e5b1a3" d="M 67.078125 69.324219 C 66.804688 68.765625 66.980469 67.902344 66.859375 67.269531 C 67.007812 68.867188 66.738281 70.398438 66.1875 71.894531 C 67.851562 72.421875 69.511719 72.929688 71.132812 73.585938 C 72.691406 71.046875 73.847656 68.179688 74.605469 65.296875 C 73.539062 66.765625 72.636719 68.238281 70.976562 69.101562 C 69.867188 69.691406 68.207031 69.976562 67.078125 69.324219 Z M 67.078125 69.324219 " fill-opacity="1" fill-rule="nonzero"/></svg>