<svg xmlns="http://www.w3.org/2000/svg" xmlns:xlink="http://www.w3.org/1999/xlink" width="150" zoomAndPan="magnify" viewBox="0 0 112.5 112.499997" height="150" preserveAspectRatio="xMidYMid meet" version="1.0"><defs><clipPath id="62bf83e687"><path d="M 0 0 L 112.003906 0 L 112.003906 112.003906 L 0 112.003906 Z M 0 0 " clip-rule="nonzero"/></clipPath><clipPath id="66d02649a1"><path d="M 56 0 C 25.074219 0 0 25.074219 0 56 C 0 86.929688 25.074219 112.003906 56 112.003906 C 86.929688 112.003906 112.003906 86.929688 112.003906 56 C 112.003906 25.074219 86.929688 0 56 0 Z M 56 0 " clip-rule="nonzero"/></clipPath><clipPath id="336799bf3d"><path d="M 5.089844 5.089844 L 106.910156 5.089844 L 106.910156 106.910156 L 5.089844 106.910156 Z M 5.089844 5.089844 " clip-rule="nonzero"/></clipPath><clipPath id="f1835ac50d"><path d="M 56 5.089844 C 27.882812 5.089844 5.089844 27.882812 5.089844 56 C 5.089844 84.117188 27.882812 106.910156 56 106.910156 C 84.117188 106.910156 106.910156 84.117188 106.910156 56 C 106.910156 27.882812 84.117188 5.089844 56 5.089844 Z M 56 5.089844 " clip-rule="nonzero"/></clipPath><clipPath id="e0cf734642"><path d="M 26 30 L 86.546875 30 L 86.546875 81.734375 L 26 81.734375 Z M 26 30 " clip-rule="nonzero"/></clipPath></defs><g clip-path="url(#62bf83e687)"><g clip-path="url(#66d02649a1)"><path fill="#ffffff" d="M 0 0 L 112.003906 0 L 112.003906 112.003906 L 0 112.003906 Z M 0 0 " fill-opacity="1" fill-rule="nonzero"/><path stroke-linecap="butt" transform="matrix(1.018202, 0, 0, 1.018202, 0.0000015, 0.000000995575)" fill="none" stroke-linejoin="miter" d="M 54.998918 -0.000000977778 C 24.625979 -0.000000977778 -0.00000147319 24.62598 -0.00000147319 54.998918 C -0.00000147319 85.375693 24.625979 110.001674 54.998918 110.001674 C 85.375692 110.001674 110.001673 85.375693 110.001673 54.998918 C 110.001673 24.62598 85.375692 -0.000000977778 54.998918 -0.000000977778 Z M 54.998918 -0.000000977778 " stroke="#fc6467" stroke-width="2.933333" stroke-opacity="1" stroke-miterlimit="4"/></g></g><g clip-path="url(#336799bf3d)"><g clip-path="url(#f1835ac50d)"><path fill="#fc6467" d="M 5.089844 5.089844 L 106.910156 5.089844 L 106.910156 106.910156 L 5.089844 106.910156 Z M 5.089844 5.089844 " fill-opacity="1" fill-rule="nonzero"/></g></g><g clip-path="url(#e0cf734642)"><path fill="#5e3528" d="M 27.550781 52.527344 C 27.492188 53.300781 27.234375 54.054688 27.15625 54.832031 C 26.914062 56.574219 27.097656 58.574219 27.992188 60.128906 C 28.796875 61.492188 30.203125 62.320312 31.59375 63 C 31.429688 65.535156 32.300781 68.160156 33.867188 70.160156 C 35.234375 71.835938 37.210938 72.246094 39.28125 72.347656 C 40.558594 72.488281 41.789062 72.265625 43.054688 72.191406 C 44.363281 73.058594 45.707031 73.820312 47.25 74.203125 C 50.152344 74.886719 53.140625 74.925781 55.898438 73.675781 C 57.414062 73.097656 58.5 72.050781 59.789062 71.140625 C 59.480469 72.605469 59.074219 73.910156 59.636719 75.386719 C 60.050781 76.515625 60.992188 77.175781 61.949219 77.828125 C 63.953125 79.101562 66.085938 80.148438 68.316406 80.964844 C 69.589844 81.5 70.890625 81.742188 72.253906 81.363281 C 74.824219 80.683594 77.132812 78.742188 78.867188 76.800781 C 81.671875 73.660156 83.601562 69.941406 84.875 65.960938 C 85.953125 62.539062 86.535156 58.667969 85.84375 55.117188 C 85.71875 54.625 85.710938 54.097656 85.269531 53.769531 C 83.273438 52.152344 80.859375 50.9375 78.59375 49.722656 C 77.265625 49.0625 75.832031 48.175781 74.363281 47.9375 C 73.925781 47.851562 73.550781 48 73.148438 48.164062 C 71.746094 48.785156 70.527344 49.679688 69.398438 50.703125 C 69.425781 49.511719 69.464844 48.359375 69.1875 47.1875 C 68.597656 44.773438 67.601562 42.449219 66.417969 40.261719 C 64.890625 37.476562 62.664062 35.144531 59.683594 33.898438 C 56.539062 32.46875 52.828125 32.496094 49.746094 34.09375 C 47.847656 32.46875 45.601562 31.457031 43.175781 30.863281 C 40.730469 30.285156 38.257812 29.808594 35.773438 30.496094 C 33.3125 31.242188 31.570312 33.421875 31.097656 35.890625 C 30.871094 37.28125 31.3125 38.53125 31.980469 39.730469 C 30.625 39.746094 29.40625 39.996094 28.421875 40.988281 C 26.046875 43.308594 25.480469 47.226562 26.464844 50.292969 C 26.683594 51.125 27.179688 51.773438 27.550781 52.527344 Z M 27.550781 52.527344 " fill-opacity="1" fill-rule="nonzero"/></g><path fill="#ffe3d4" d="M 46.703125 51.25 C 47.648438 51.320312 48.4375 51.660156 49.328125 51.945312 C 49.640625 50.445312 50.109375 48.78125 49.90625 47.246094 C 49.773438 46.320312 49.074219 45.464844 48.109375 45.339844 C 47.058594 45.355469 45.75 45.835938 45.359375 46.886719 C 44.875 48.296875 44.570312 49.785156 44.460938 51.269531 C 45.203125 51.253906 45.960938 51.203125 46.703125 51.25 Z M 46.703125 51.25 " fill-opacity="1" fill-rule="nonzero"/><path fill="#ffe3d4" d="M 73.359375 55.960938 C 71.710938 55.371094 70.21875 54.21875 68.851562 53.15625 C 68.546875 53.875 68.296875 54.59375 67.90625 55.277344 C 67.402344 56.1875 66.746094 56.90625 66.144531 57.746094 C 66.449219 56.597656 66.941406 55.523438 67.210938 54.367188 C 67.949219 50.382812 66.9375 46.371094 64.953125 42.894531 C 63.765625 40.707031 62.460938 38.695312 60.355469 37.269531 C 58.675781 36.144531 56.613281 35.371094 54.566406 35.460938 C 51.820312 35.472656 49.128906 36.972656 47.820312 39.386719 C 46.925781 41.03125 46.460938 42.972656 45.960938 44.769531 C 46.882812 44.464844 47.726562 44.109375 48.71875 44.332031 C 50.070312 44.65625 50.949219 45.914062 51.066406 47.25 C 51.207031 49.230469 50.746094 51.238281 49.6875 52.933594 C 48.65625 52.796875 47.726562 52.332031 46.699219 52.199219 C 46.007812 52.109375 45.304688 52.097656 44.609375 52.078125 C 44.730469 52.308594 44.855469 52.535156 44.976562 52.761719 C 45.308594 53.304688 45.632812 53.824219 46.234375 54.097656 C 47.789062 54.804688 49.546875 54.535156 50.960938 53.632812 C 53.066406 52.277344 54.726562 50.183594 55.683594 47.890625 C 56.339844 46.4375 56.574219 44.917969 57.070312 43.417969 C 57.203125 44.691406 57.222656 45.949219 56.890625 47.195312 C 56.226562 49.8125 55.902344 52.46875 56.191406 55.167969 C 56.34375 56.5625 56.84375 57.929688 56.820312 59.304688 C 55.980469 58.644531 55.21875 57.964844 54.792969 56.964844 C 54.332031 55.960938 54.234375 54.941406 54.160156 53.855469 C 53.351562 54.734375 52.496094 55.394531 51.4375 55.957031 C 51.371094 56.128906 51.296875 56.296875 51.226562 56.464844 C 51.296875 56.296875 51.371094 56.128906 51.4375 55.957031 C 50.453125 56.300781 49.433594 56.484375 48.402344 56.625 C 48.25 57.917969 48.015625 59.125 47.375 60.273438 C 48.320312 61.613281 49.027344 63.210938 49.246094 64.84375 C 49.4375 66.300781 48.785156 67.527344 48.023438 68.710938 C 47.382812 69.691406 46.535156 70.378906 45.660156 71.140625 C 47.78125 72.101562 50.101562 72.550781 52.433594 72.414062 C 54.550781 72.207031 56.761719 71.398438 58.324219 69.929688 C 59.765625 68.566406 60.898438 66.960938 61.835938 65.226562 C 61.894531 66.648438 61.519531 67.910156 60.96875 69.207031 C 62.570312 69.636719 63.992188 70.3125 65.371094 71.222656 C 66.671875 69.777344 67.757812 68.175781 68.738281 66.503906 C 68.613281 66.535156 68.488281 66.570312 68.363281 66.605469 C 68.488281 66.570312 68.613281 66.535156 68.738281 66.503906 C 70.769531 63.242188 72.410156 59.683594 73.359375 55.960938 Z M 50.007812 53.101562 C 50.078125 53.074219 50.140625 53.042969 50.203125 53.003906 C 50.140625 53.042969 50.078125 53.074219 50.007812 53.101562 Z M 50.875 52.144531 C 50.863281 52.179688 50.847656 52.21875 50.828125 52.253906 C 50.847656 52.21875 50.863281 52.179688 50.875 52.144531 C 50.972656 51.898438 51.050781 51.652344 51.128906 51.40625 C 51.050781 51.652344 50.972656 51.898438 50.875 52.144531 Z M 52.140625 49.121094 C 52.09375 49.179688 52.046875 49.238281 52.003906 49.300781 C 52.046875 49.238281 52.09375 49.179688 52.140625 49.121094 C 52.242188 48.984375 52.34375 48.84375 52.4375 48.707031 C 52.34375 48.84375 52.242188 48.984375 52.140625 49.121094 Z M 57.75 60.039062 C 58 60.226562 58.261719 60.398438 58.535156 60.546875 C 58.261719 60.398438 58 60.226562 57.75 60.039062 Z M 58.808594 66.320312 C 58.992188 66.269531 59.175781 66.210938 59.355469 66.144531 C 59.175781 66.210938 58.992188 66.269531 58.808594 66.320312 Z M 59.453125 60.910156 C 59.648438 60.960938 59.847656 61 60.046875 61.019531 C 59.847656 61 59.648438 60.960938 59.453125 60.910156 Z M 62.554688 63.710938 C 62.390625 63.941406 62.214844 64.160156 62.027344 64.363281 C 62.214844 64.160156 62.390625 63.941406 62.554688 63.710938 Z M 64.121094 55.746094 C 64.179688 55.746094 64.234375 55.746094 64.292969 55.742188 C 64.234375 55.746094 64.179688 55.746094 64.121094 55.746094 Z M 64.121094 55.746094 " fill-opacity="1" fill-rule="nonzero"/><path fill="#ffe3d4" d="M 38.800781 64.765625 C 37.046875 64.648438 35.378906 64.207031 33.675781 63.816406 C 33.820312 64.816406 34.0625 65.773438 34.457031 66.707031 C 34.914062 67.789062 35.445312 69.058594 36.566406 69.609375 C 37.789062 70.203125 39.398438 70.164062 40.734375 70.171875 C 42.851562 70.164062 44.957031 69.394531 46.277344 67.6875 C 46.839844 66.945312 47.460938 66.003906 47.386719 65.039062 C 47.316406 63.847656 46.8125 62.640625 46.238281 61.609375 C 44.964844 62.472656 43.878906 63.453125 42.496094 64.179688 C 42.527344 64.285156 42.558594 64.394531 42.589844 64.507812 C 42.558594 64.394531 42.527344 64.285156 42.496094 64.179688 C 41.347656 64.800781 40.085938 64.925781 38.800781 64.765625 Z M 38.800781 64.765625 " fill-opacity="1" fill-rule="nonzero"/><path fill="#ffe3d4" d="M 36.574219 40.71875 C 38.800781 41.992188 41.230469 43.035156 43.609375 43.996094 C 43.941406 42.871094 44.234375 41.734375 44.601562 40.625 C 44.5 40.585938 44.402344 40.550781 44.300781 40.515625 C 44.402344 40.550781 44.5 40.585938 44.601562 40.625 C 45.015625 39.414062 45.546875 38.199219 46.273438 37.144531 C 46.742188 36.453125 47.414062 35.863281 47.984375 35.25 C 45.855469 33.777344 43.160156 33.007812 40.652344 32.457031 C 38.742188 32.109375 36.515625 31.96875 34.933594 33.292969 C 34.140625 34.054688 33.488281 35.070312 33.304688 36.160156 C 33.15625 37.078125 33.457031 38.019531 34.035156 38.738281 C 34.691406 39.566406 35.667969 40.195312 36.574219 40.71875 Z M 39.847656 38.898438 C 39.945312 38.941406 40.042969 38.988281 40.140625 39.03125 C 40.042969 38.988281 39.945312 38.941406 39.847656 38.898438 C 39.464844 38.71875 39.089844 38.527344 38.71875 38.324219 C 39.089844 38.527344 39.464844 38.71875 39.847656 38.898438 Z M 39.847656 38.898438 " fill-opacity="1" fill-rule="nonzero"/><path fill="#ffe3d4" d="M 32.554688 53.230469 C 35.890625 54.375 39.605469 54.960938 43.078125 54.105469 C 42.464844 52.492188 42.183594 50.839844 42.328125 49.117188 C 42.570312 47.691406 42.992188 46.347656 43.34375 44.949219 C 40.820312 44.261719 38.175781 43.53125 35.800781 42.4375 C 35.042969 42.101562 34.332031 41.601562 33.515625 41.5 C 32.542969 41.355469 31.332031 41.332031 30.445312 41.820312 C 29.40625 42.457031 28.800781 43.761719 28.480469 44.886719 C 28.046875 46.769531 28.011719 48.726562 28.863281 50.5 C 29.621094 51.921875 31.082031 52.699219 32.554688 53.230469 Z M 32.554688 53.230469 " fill-opacity="1" fill-rule="nonzero"/><path fill="#ffe3d4" d="M 42.105469 56.449219 C 38.507812 57 34.945312 56.414062 31.566406 55.148438 C 30.792969 54.855469 30.09375 54.398438 29.3125 54.121094 C 29.042969 55.019531 29.089844 56.042969 29.171875 56.964844 C 29.28125 57.976562 29.367188 58.90625 30.125 59.667969 C 31.296875 60.867188 33.0625 61.589844 34.664062 62.03125 C 36.402344 62.5 38.207031 62.910156 40.015625 62.988281 C 41.359375 63.042969 42.410156 62.308594 43.460938 61.585938 C 44.308594 60.972656 45.234375 60.296875 45.855469 59.449219 C 46.488281 58.578125 46.476562 57.519531 46.5625 56.488281 C 45.898438 56.257812 45.222656 55.9375 44.523438 55.828125 C 43.707031 55.878906 42.902344 56.257812 42.105469 56.449219 Z M 37.476562 60.238281 C 37.636719 60.234375 37.796875 60.222656 37.957031 60.210938 C 37.796875 60.222656 37.636719 60.234375 37.476562 60.238281 Z M 40.488281 59.578125 C 40.128906 59.738281 39.753906 59.867188 39.371094 59.96875 C 39.753906 59.867188 40.128906 59.738281 40.488281 59.578125 C 40.613281 59.515625 40.730469 59.453125 40.84375 59.382812 C 40.730469 59.453125 40.613281 59.515625 40.488281 59.578125 Z M 42.53125 56.636719 C 42.554688 56.554688 42.578125 56.472656 42.601562 56.390625 C 42.578125 56.472656 42.554688 56.554688 42.53125 56.636719 Z M 42.53125 56.636719 " fill-opacity="1" fill-rule="nonzero"/><path fill="#6d6d6d" d="M 71.132812 52.128906 C 72.011719 52.6875 72.902344 53.21875 73.789062 53.761719 C 74.371094 52.941406 74.210938 52.132812 74.242188 51.191406 C 75.679688 52.308594 75.492188 53.933594 75.382812 55.558594 C 74.878906 59.382812 73.242188 63.152344 71.316406 66.476562 C 70.484375 68.089844 70.597656 70.210938 71.328125 71.84375 C 72.203125 73.6875 74.523438 74.273438 76.347656 73.566406 C 78.277344 72.820312 79.617188 71.027344 80.632812 69.3125 C 81.6875 67.691406 82.371094 65.914062 82.941406 64.078125 C 83.691406 61.585938 84.109375 59.023438 83.722656 56.425781 C 83.585938 55.878906 83.488281 55.175781 82.929688 54.902344 C 80.503906 53.503906 78.070312 52.117188 75.59375 50.8125 C 75.207031 50.613281 74.8125 50.359375 74.382812 50.257812 C 73.089844 50.46875 71.988281 51.152344 71.132812 52.128906 Z M 78.410156 66.484375 C 79.402344 68.105469 78.738281 70.332031 77.082031 71.242188 C 75.738281 71.980469 73.980469 71.566406 73.183594 70.242188 C 72.121094 68.464844 73.035156 66.070312 74.964844 65.34375 C 76.222656 64.839844 77.707031 65.339844 78.410156 66.484375 Z M 78.410156 66.484375 " fill-opacity="1" fill-rule="nonzero"/><path fill="#ffffff" d="M 74.511719 69.859375 C 74.960938 70.304688 75.640625 70.453125 76.226562 70.195312 C 77.46875 69.695312 77.941406 68.066406 77.175781 66.976562 C 76.753906 66.339844 75.964844 66.121094 75.25 66.359375 C 73.878906 66.859375 73.527344 68.84375 74.511719 69.859375 Z M 74.511719 69.859375 " fill-opacity="1" fill-rule="nonzero"/><path fill="#6d6d6d" d="M 70.882812 73.230469 C 69.851562 71.988281 69.734375 70.585938 69.5625 69.050781 C 68.332031 70.671875 66.867188 72.273438 65.117188 73.351562 C 64.320312 73.855469 63.460938 74.078125 62.523438 74.136719 C 62.984375 73.652344 63.46875 73.1875 63.933594 72.695312 C 63.308594 72.40625 62.6875 72.105469 62.058594 71.828125 C 61.664062 72.773438 61.390625 73.707031 61.351562 74.734375 C 63.757812 76.648438 66.613281 78.050781 69.484375 79.140625 C 70.269531 79.511719 71.132812 79.152344 71.886719 78.875 C 74.085938 77.953125 75.984375 76.105469 77.5 74.308594 C 75.332031 75.320312 72.46875 75.183594 70.882812 73.230469 Z M 70.882812 73.230469 " fill-opacity="1" fill-rule="nonzero"/><path fill="#e5b1a3" d="M 36.574219 40.71875 C 38.800781 41.992188 41.230469 43.035156 43.609375 43.996094 C 43.941406 42.871094 44.234375 41.734375 44.601562 40.625 C 43 40.019531 41.402344 39.625 39.847656 38.898438 C 38.488281 38.265625 37.191406 37.472656 36.046875 36.507812 C 35.605469 36.121094 35.082031 35.628906 34.90625 35.058594 C 34.78125 34.5 34.898438 33.863281 34.933594 33.292969 C 34.140625 34.054688 33.488281 35.070312 33.304688 36.160156 C 33.15625 37.078125 33.457031 38.019531 34.035156 38.738281 C 34.691406 39.566406 35.667969 40.195312 36.574219 40.71875 Z M 36.574219 40.71875 " fill-opacity="1" fill-rule="nonzero"/><path fill="#e5b1a3" d="M 46.234375 54.097656 C 47.789062 54.804688 49.546875 54.535156 50.960938 53.632812 C 53.066406 52.277344 54.726562 50.183594 55.683594 47.890625 C 56.339844 46.4375 56.574219 44.917969 57.070312 43.417969 C 57.203125 44.691406 57.222656 45.949219 56.890625 47.195312 C 56.226562 49.8125 55.902344 52.46875 56.191406 55.167969 C 56.34375 56.5625 56.84375 57.929688 56.820312 59.304688 C 57.515625 59.871094 58.214844 60.46875 59.070312 60.789062 C 60.082031 61.171875 61.214844 61.09375 62.234375 60.777344 C 63.839844 60.25 65.246094 59.171875 66.144531 57.746094 C 66.449219 56.597656 66.941406 55.523438 67.210938 54.367188 C 66.300781 55.132812 65.371094 55.761719 64.121094 55.746094 C 62.480469 55.78125 61.09375 54.773438 60.347656 53.371094 C 59.085938 51.074219 59.34375 48.460938 58.953125 45.949219 C 58.777344 44.859375 58.554688 43.492188 57.808594 42.632812 C 57.152344 41.914062 56.320312 41.917969 55.421875 41.835938 C 54.664062 44.433594 53.785156 46.929688 52.140625 49.121094 C 51.410156 50.039062 51.285156 51.09375 50.875 52.144531 C 50.640625 52.734375 50.21875 53.152344 49.554688 53.210938 C 48.042969 53.328125 46.460938 53.0625 44.976562 52.761719 C 45.308594 53.304688 45.632812 53.824219 46.234375 54.097656 Z M 46.234375 54.097656 " fill-opacity="1" fill-rule="nonzero"/><path fill="#e5b1a3" d="M 32.554688 53.230469 C 35.890625 54.375 39.605469 54.960938 43.078125 54.105469 C 42.464844 52.492188 42.183594 50.839844 42.328125 49.117188 C 42.246094 49.621094 42.175781 50.125 42.109375 50.628906 C 39.011719 50.707031 35.933594 50.214844 33 49.238281 C 31.574219 48.753906 30.265625 48.183594 29.304688 46.980469 C 28.789062 46.375 28.554688 45.667969 28.480469 44.886719 C 28.046875 46.769531 28.011719 48.726562 28.863281 50.5 C 29.621094 51.921875 31.082031 52.699219 32.554688 53.230469 Z M 32.554688 53.230469 " fill-opacity="1" fill-rule="nonzero"/><path fill="#e5b1a3" d="M 42.105469 56.449219 L 42.601562 56.390625 C 42.21875 57.71875 41.839844 58.933594 40.488281 59.578125 C 38.191406 60.601562 35.296875 60.375 33.023438 59.394531 C 31.550781 58.792969 30.492188 57.796875 29.171875 56.964844 C 29.28125 57.976562 29.367188 58.90625 30.125 59.667969 C 31.296875 60.867188 33.0625 61.589844 34.664062 62.03125 C 36.402344 62.5 38.207031 62.910156 40.015625 62.988281 C 41.359375 63.042969 42.410156 62.308594 43.460938 61.585938 C 44.308594 60.972656 45.234375 60.296875 45.855469 59.449219 C 46.488281 58.578125 46.476562 57.519531 46.5625 56.488281 C 45.898438 56.257812 45.222656 55.9375 44.523438 55.828125 C 43.707031 55.878906 42.902344 56.257812 42.105469 56.449219 Z M 42.105469 56.449219 " fill-opacity="1" fill-rule="nonzero"/><path fill="#e5b1a3" d="M 64.777344 66.726562 C 63.492188 66.128906 62.96875 64.984375 62.554688 63.710938 C 60.699219 66.328125 57.199219 67.265625 54.230469 66.070312 C 52.886719 65.5 51.644531 64.457031 50.914062 63.199219 C 50.0625 61.625 49.957031 59.652344 50.585938 57.984375 C 50.839844 57.296875 51.164062 56.636719 51.4375 55.957031 C 50.453125 56.300781 49.433594 56.484375 48.402344 56.625 C 48.25 57.917969 48.015625 59.125 47.375 60.273438 C 48.320312 61.613281 49.027344 63.210938 49.246094 64.84375 C 49.4375 66.300781 48.785156 67.527344 48.023438 68.710938 C 47.382812 69.691406 46.535156 70.378906 45.660156 71.140625 C 47.78125 72.101562 50.101562 72.550781 52.433594 72.414062 C 54.550781 72.207031 56.761719 71.398438 58.324219 69.929688 C 59.765625 68.566406 60.898438 66.960938 61.835938 65.226562 C 61.894531 66.648438 61.519531 67.910156 60.96875 69.207031 C 62.570312 69.636719 63.992188 70.3125 65.371094 71.222656 C 66.671875 69.777344 67.757812 68.175781 68.738281 66.503906 C 67.398438 66.859375 66.140625 67.339844 64.777344 66.726562 Z M 64.777344 66.726562 " fill-opacity="1" fill-rule="nonzero"/><path fill="#e5b1a3" d="M 46.277344 67.6875 C 46.839844 66.945312 47.460938 66.003906 47.386719 65.039062 C 47.316406 63.847656 46.8125 62.640625 46.238281 61.609375 C 44.964844 62.472656 43.878906 63.453125 42.496094 64.179688 C 42.628906 64.660156 42.835938 65.230469 42.761719 65.734375 C 42.585938 66.527344 41.914062 67.074219 41.195312 67.386719 C 40.109375 67.855469 38.8125 67.910156 37.648438 67.796875 C 36.46875 67.671875 35.515625 67.179688 34.457031 66.707031 C 34.914062 67.789062 35.445312 69.058594 36.566406 69.609375 C 37.789062 70.203125 39.398438 70.164062 40.734375 70.171875 C 42.851562 70.164062 44.957031 69.394531 46.277344 67.6875 Z M 46.277344 67.6875 " fill-opacity="1" fill-rule="nonzero"/></svg>