<svg xmlns="http://www.w3.org/2000/svg" xmlns:xlink="http://www.w3.org/1999/xlink" width="150" zoomAndPan="magnify" viewBox="0 0 112.5 112.499997" height="150" preserveAspectRatio="xMidYMid meet" version="1.0"><defs><clipPath id="b594c7bfe2"><path d="M 0 0 L 112.003906 0 L 112.003906 112.003906 L 0 112.003906 Z M 0 0 " clip-rule="nonzero"/></clipPath><clipPath id="8259cd2ace"><path d="M 56 0 C 25.074219 0 0 25.074219 0 56 C 0 86.929688 25.074219 112.003906 56 112.003906 C 86.929688 112.003906 112.003906 86.929688 112.003906 56 C 112.003906 25.074219 86.929688 0 56 0 Z M 56 0 " clip-rule="nonzero"/></clipPath><clipPath id="b68dee6a06"><path d="M 5.089844 5.089844 L 106.910156 5.089844 L 106.910156 106.910156 L 5.089844 106.910156 Z M 5.089844 5.089844 " clip-rule="nonzero"/></clipPath><clipPath id="715109c893"><path d="M 56 5.089844 C 27.882812 5.089844 5.089844 27.882812 5.089844 56 C 5.089844 84.117188 27.882812 106.910156 56 106.910156 C 84.117188 106.910156 106.910156 84.117188 106.910156 56 C 106.910156 27.882812 84.117188 5.089844 56 5.089844 Z M 56 5.089844 " clip-rule="nonzero"/></clipPath><clipPath id="d9709fb52d"><path d="M 25.453125 32.214844 L 86.546875 32.214844 L 86.546875 80 L 25.453125 80 Z M 25.453125 32.214844 " clip-rule="nonzero"/></clipPath></defs><g clip-path="url(#b594c7bfe2)"><g clip-path="url(#8259cd2ace)"><path fill="#ffffff" d="M 0 0 L 112.003906 0 L 112.003906 112.003906 L 0 112.003906 Z M 0 0 " fill-opacity="1" fill-rule="nonzero"/><path stroke-linecap="butt" transform="matrix(1.018202, 0, 0, 1.018202, 0.0000015, 0.000000995575)" fill="none" stroke-linejoin="miter" d="M 54.998918 -0.000000977778 C 24.625979 -0.000000977778 -0.00000147319 24.62598 -0.00000147319 54.998918 C -0.00000147319 85.375693 24.625979 110.001674 54.998918 110.001674 C 85.375692 110.001674 110.001673 85.375693 110.001673 54.998918 C 110.001673 24.62598 85.375692 -0.000000977778 54.998918 -0.000000977778 Z M 54.998918 -0.000000977778 " stroke="#b7e9f6" stroke-width="2.933333" stroke-opacity="1" stroke-miterlimit="4"/></g></g><g clip-path="url(#b68dee6a06)"><g clip-path="url(#715109c893)"><path fill="#b7e9f6" d="M 5.089844 5.089844 L 106.910156 5.089844 L 106.910156 106.910156 L 5.089844 106.910156 Z M 5.089844 5.089844 " fill-opacity="1" fill-rule="nonzero"/></g></g><g clip-path="url(#d9709fb52d)"><path fill="#5e3528" d="M 85.253906 58.179688 C 83.707031 57.011719 81.933594 56.09375 80.230469 55.179688 C 79.265625 54.695312 78.308594 54.097656 77.234375 53.933594 C 76.898438 53.878906 76.621094 54 76.320312 54.128906 C 75.261719 54.617188 74.304688 55.300781 73.472656 56.121094 C 73.699219 54.183594 73.191406 52.363281 72.402344 50.617188 C 71.648438 48.570312 70.523438 46.46875 68.933594 44.960938 C 66.703125 42.878906 63.578125 41.8125 60.566406 42.492188 C 59.355469 42.742188 58.332031 43.347656 57.308594 44.019531 C 56.558594 43.515625 55.75 43.160156 54.949219 42.753906 C 52.214844 41.371094 49.640625 39.753906 47.144531 37.980469 C 45.539062 36.847656 43.984375 35.652344 42.339844 34.582031 C 41.492188 34.046875 40.792969 33.433594 39.871094 33.027344 C 38.152344 32.246094 36.070312 32.214844 34.414062 33.191406 C 33.074219 33.953125 32.117188 35.328125 31.863281 36.859375 C 31.648438 37.949219 31.867188 39.140625 32.226562 40.179688 C 32.554688 41.160156 33.445312 41.90625 34.167969 42.617188 C 35.457031 43.835938 36.941406 44.738281 38.375 45.761719 C 36.59375 45.125 34.914062 44.183594 33.1875 43.40625 C 31.90625 42.773438 30.53125 42.367188 29.09375 42.675781 C 27.78125 42.882812 26.675781 43.761719 26.117188 44.964844 C 25.492188 46.328125 25.484375 47.980469 25.980469 49.382812 C 26.699219 51.574219 28.328125 53.273438 30.335938 54.339844 C 33.855469 56.195312 37.671875 57.457031 41.621094 57.949219 C 41.125 59.605469 41.078125 61.640625 41.882812 63.210938 C 42.519531 64.402344 43.546875 64.929688 44.65625 65.582031 C 44.808594 66.328125 44.660156 67.113281 44.898438 67.863281 C 45.3125 69.363281 46.035156 71.0625 47.371094 71.957031 C 48.601562 72.769531 50.375 72.839844 51.804688 72.824219 C 52.339844 72.84375 53.023438 72.589844 53.515625 72.730469 C 54.640625 73.503906 55.839844 74.113281 57.191406 74.359375 C 58.867188 74.671875 60.757812 74.734375 62.390625 74.167969 C 63.285156 73.859375 64.183594 73.4375 64.929688 72.851562 C 65.335938 72.53125 65.730469 72.195312 66.152344 71.898438 C 65.949219 73.019531 65.640625 74 66.050781 75.128906 C 66.359375 75.996094 67.074219 76.515625 67.796875 77.019531 C 69.570312 78.160156 71.472656 79.078125 73.472656 79.738281 C 74.511719 80.074219 75.589844 79.875 76.574219 79.453125 C 78.078125 78.804688 79.414062 77.660156 80.511719 76.457031 C 82.953125 73.765625 84.613281 70.394531 85.558594 66.894531 C 86.226562 64.363281 86.515625 61.53125 85.902344 58.964844 C 85.839844 58.601562 85.515625 58.402344 85.253906 58.179688 Z M 85.253906 58.179688 " fill-opacity="1" fill-rule="nonzero"/></g><path fill="#ffe3d4" d="M 58.3125 56.628906 C 58.691406 55.433594 59.007812 54.011719 58.617188 52.777344 C 58.390625 52.15625 58.027344 51.5 57.265625 51.5625 C 56.320312 51.683594 55.242188 52.425781 55.078125 53.429688 C 54.835938 54.3125 54.625 55.199219 54.546875 56.113281 C 55.84375 56.054688 57.09375 56.15625 58.3125 56.628906 Z M 58.3125 56.628906 " fill-opacity="1" fill-rule="nonzero"/><path fill="#ffe3d4" d="M 70.929688 61.558594 C 71.246094 60.617188 71.640625 59.75 71.828125 58.765625 C 72.308594 56.183594 71.746094 53.585938 70.714844 51.214844 C 69.773438 49.335938 68.628906 47.160156 66.898438 45.90625 C 65.566406 44.910156 63.839844 44.21875 62.160156 44.300781 C 60.175781 44.324219 58.1875 45.394531 57.183594 47.128906 C 56.457031 48.367188 56.082031 49.898438 55.703125 51.28125 C 56.433594 50.960938 57.0625 50.609375 57.882812 50.792969 C 58.777344 50.960938 59.222656 51.851562 59.46875 52.640625 C 59.921875 54.257812 59.464844 56.097656 58.773438 57.582031 C 57.394531 56.988281 56.027344 56.65625 54.511719 56.734375 C 54.5625 56.863281 54.609375 56.992188 54.65625 57.121094 C 54.773438 57.140625 54.890625 57.160156 55.003906 57.183594 C 54.890625 57.160156 54.773438 57.140625 54.65625 57.121094 C 54.921875 57.800781 55.269531 58.417969 55.960938 58.738281 C 57.15625 59.257812 58.480469 58.992188 59.542969 58.285156 C 61.132812 57.214844 62.382812 55.589844 63.09375 53.804688 C 63.5625 52.710938 63.730469 51.566406 64.109375 50.449219 C 64.210938 51.386719 64.226562 52.316406 63.996094 53.242188 C 63.457031 55.40625 63.152344 57.753906 63.5 59.976562 C 63.640625 60.945312 63.964844 61.777344 63.867188 62.726562 C 63.378906 62.253906 62.882812 61.867188 62.550781 61.257812 C 62.054688 60.394531 61.96875 59.488281 61.894531 58.511719 C 61.230469 59.246094 60.53125 59.777344 59.632812 60.195312 C 58.9375 60.433594 58.226562 60.550781 57.5 60.652344 C 57.394531 61.648438 57.195312 62.574219 56.761719 63.476562 C 57.511719 64.683594 58.230469 66.226562 58.164062 67.675781 C 57.910156 69.460938 56.753906 70.757812 55.425781 71.859375 C 57.066406 72.625 58.90625 72.988281 60.710938 72.835938 C 62.390625 72.617188 64.121094 71.917969 65.308594 70.667969 C 66.308594 69.671875 67.027344 68.496094 67.769531 67.300781 C 67.792969 68.417969 67.519531 69.375 67.070312 70.378906 C 68.296875 70.699219 69.367188 71.21875 70.414062 71.933594 C 71.476562 70.757812 72.316406 69.460938 73.117188 68.09375 C 74.597656 65.621094 75.8125 62.9375 76.511719 60.132812 C 75.265625 59.699219 74.128906 58.785156 73.09375 57.984375 C 72.601562 59.402344 71.933594 60.457031 70.929688 61.558594 Z M 62.511719 49.808594 C 62.585938 49.609375 62.664062 49.40625 62.75 49.207031 C 62.664062 49.40625 62.585938 49.609375 62.511719 49.808594 Z M 59.164062 65.582031 C 59.050781 65.347656 58.957031 65.105469 58.886719 64.855469 C 58.847656 64.730469 58.816406 64.605469 58.792969 64.476562 C 58.816406 64.605469 58.847656 64.730469 58.886719 64.855469 C 58.957031 65.105469 59.050781 65.347656 59.164062 65.582031 C 59.253906 65.75 59.355469 65.914062 59.460938 66.070312 C 59.355469 65.914062 59.253906 65.75 59.164062 65.582031 Z M 64.171875 68.332031 C 64.089844 68.339844 64.011719 68.34375 63.933594 68.347656 C 64.011719 68.34375 64.089844 68.339844 64.171875 68.332031 C 64.269531 68.324219 64.367188 68.316406 64.464844 68.304688 C 64.367188 68.316406 64.269531 68.324219 64.171875 68.332031 Z M 64.351562 49.703125 C 64.285156 49.644531 64.214844 49.59375 64.140625 49.550781 C 64.214844 49.59375 64.285156 49.644531 64.351562 49.703125 C 64.421875 49.761719 64.484375 49.824219 64.546875 49.898438 C 64.484375 49.824219 64.421875 49.761719 64.351562 49.703125 Z M 65.289062 63.808594 C 65.214844 63.777344 65.148438 63.746094 65.078125 63.710938 C 65.148438 63.746094 65.214844 63.777344 65.289062 63.808594 C 65.328125 63.828125 65.367188 63.84375 65.40625 63.859375 C 65.367188 63.84375 65.328125 63.828125 65.289062 63.808594 Z M 65.289062 63.808594 " fill-opacity="1" fill-rule="nonzero"/><path fill="#ffe3d4" d="M 29.789062 51.78125 C 32.296875 53.355469 35.09375 54.488281 37.929688 55.304688 C 40.335938 55.941406 42.792969 56.386719 45.261719 56.703125 C 46.132812 56.820312 46.992188 56.921875 47.839844 57.140625 C 46.496094 57.277344 45.195312 57.132812 43.945312 57.734375 C 44.03125 57.777344 44.121094 57.824219 44.207031 57.875 C 44.121094 57.824219 44.03125 57.777344 43.945312 57.734375 C 43.449219 58.0625 43.011719 58.503906 42.886719 59.105469 C 42.773438 59.695312 42.816406 60.324219 42.84375 60.921875 C 42.9375 61.71875 43.082031 62.46875 43.660156 63.066406 C 44.402344 63.824219 45.460938 64.316406 46.453125 64.648438 C 47.652344 65.035156 48.90625 65.320312 50.152344 65.488281 C 50.796875 65.566406 51.46875 65.644531 52.089844 65.425781 C 52.792969 65.183594 53.441406 64.707031 54.035156 64.269531 C 54.628906 63.820312 55.308594 63.296875 55.6875 62.640625 C 56.046875 62.035156 56.046875 61.253906 56.09375 60.566406 C 55.363281 60.289062 54.671875 60.105469 54.164062 59.457031 C 53.707031 58.960938 53.40625 58.183594 52.847656 57.816406 C 52.097656 57.667969 51.21875 57.773438 50.589844 58.242188 C 50.234375 58.496094 49.902344 58.789062 49.550781 59.054688 C 49.824219 58.484375 50.121094 57.945312 50.585938 57.503906 C 51.195312 56.90625 51.976562 56.613281 52.761719 56.328125 C 52.796875 55.898438 52.820312 55.464844 52.863281 55.035156 C 53.125 53.3125 53.714844 51.609375 54.136719 49.914062 C 54.546875 48.308594 55.085938 46.765625 56.011719 45.378906 C 52.085938 43.707031 48.542969 41.441406 45.101562 38.9375 C 43.203125 37.542969 41.277344 36.148438 39.261719 34.925781 C 38.65625 34.550781 38 34.367188 37.289062 34.339844 C 36.265625 34.28125 35.261719 34.554688 34.625 35.410156 C 33.472656 36.886719 33.710938 39.253906 34.804688 40.699219 C 35.472656 41.578125 36.445312 42.265625 37.328125 42.914062 C 39.582031 44.488281 41.9375 45.925781 44.40625 47.136719 C 46.632812 48.238281 48.945312 49.15625 51.199219 50.207031 C 51.539062 49.703125 51.898438 49.230469 52.339844 48.808594 C 52.300781 50.460938 51.578125 51.742188 51.007812 53.230469 C 50.921875 53.277344 50.835938 53.328125 50.746094 53.375 C 50.757812 52.683594 50.796875 52.007812 50.871094 51.320312 C 49.574219 50.96875 48.242188 50.78125 46.945312 50.4375 C 42.605469 49.367188 38.617188 47.703125 34.539062 45.90625 C 33.742188 45.566406 32.984375 45.117188 32.171875 44.8125 C 31.332031 44.5625 30.359375 44.574219 29.554688 44.941406 C 28.21875 45.5 27.488281 46.875 27.585938 48.300781 C 27.632812 49.792969 28.554688 51.027344 29.789062 51.78125 Z M 46.054688 58.828125 C 45.964844 58.792969 45.871094 58.75 45.78125 58.710938 C 45.871094 58.75 45.964844 58.792969 46.054688 58.828125 C 46.15625 58.867188 46.257812 58.90625 46.359375 58.945312 C 46.257812 58.90625 46.15625 58.867188 46.054688 58.828125 Z M 35.863281 35.574219 C 35.855469 35.605469 35.847656 35.640625 35.839844 35.671875 C 35.847656 35.640625 35.855469 35.605469 35.863281 35.574219 C 35.875 35.546875 35.890625 35.523438 35.902344 35.496094 C 35.890625 35.523438 35.875 35.546875 35.863281 35.574219 Z M 47.339844 46.195312 C 47.027344 46.011719 46.714844 45.824219 46.40625 45.636719 C 46.714844 45.824219 47.027344 46.011719 47.339844 46.195312 C 47.589844 46.34375 47.84375 46.492188 48.101562 46.636719 C 47.84375 46.492188 47.589844 46.34375 47.339844 46.195312 Z M 50.480469 47.78125 C 50.34375 47.730469 50.207031 47.679688 50.070312 47.621094 C 50.207031 47.679688 50.34375 47.730469 50.480469 47.78125 C 50.613281 47.828125 50.746094 47.863281 50.878906 47.894531 C 50.746094 47.863281 50.613281 47.828125 50.480469 47.78125 Z M 49.105469 59.613281 C 49.390625 59.648438 49.675781 59.671875 49.960938 59.6875 C 49.675781 59.671875 49.390625 59.648438 49.105469 59.613281 C 48.914062 59.589844 48.726562 59.5625 48.539062 59.53125 C 48.726562 59.5625 48.914062 59.589844 49.105469 59.613281 Z M 33.042969 50.519531 C 33.394531 50.703125 33.753906 50.882812 34.117188 51.054688 C 33.753906 50.882812 33.394531 50.703125 33.042969 50.519531 C 32.925781 50.460938 32.8125 50.394531 32.695312 50.328125 C 32.8125 50.394531 32.925781 50.460938 33.042969 50.519531 Z M 29.234375 45.746094 C 29.210938 45.816406 29.1875 45.882812 29.171875 45.953125 C 29.1875 45.882812 29.210938 45.816406 29.234375 45.746094 Z M 29.234375 45.746094 " fill-opacity="1" fill-rule="nonzero"/><path fill="#ffe3d4" d="M 55.785156 69.328125 C 56.226562 68.773438 56.71875 68.046875 56.753906 67.320312 C 56.730469 66.34375 56.320312 65.34375 55.847656 64.5 C 54.878906 65.1875 54.015625 65.949219 52.957031 66.535156 C 51.589844 67.214844 50.292969 66.976562 48.851562 66.773438 C 47.992188 66.640625 47.160156 66.378906 46.304688 66.226562 C 46.40625 67.085938 46.628906 67.863281 46.976562 68.648438 C 47.324219 69.46875 47.738281 70.34375 48.589844 70.730469 C 49.496094 71.132812 50.648438 71.117188 51.625 71.117188 C 53.199219 71.121094 54.761719 70.574219 55.785156 69.328125 Z M 52.753906 68.289062 C 52.722656 68.328125 52.691406 68.367188 52.65625 68.402344 C 52.691406 68.367188 52.722656 68.328125 52.753906 68.289062 C 52.78125 68.257812 52.808594 68.226562 52.828125 68.191406 C 52.808594 68.226562 52.78125 68.257812 52.753906 68.289062 Z M 53.035156 67.558594 C 53.039062 67.484375 53.039062 67.410156 53.035156 67.335938 C 53.039062 67.410156 53.039062 67.484375 53.035156 67.558594 Z M 53.035156 67.558594 " fill-opacity="1" fill-rule="nonzero"/><path fill="#6d6d6d" d="M 83.773438 59.300781 C 81.761719 58.132812 79.75 56.964844 77.691406 55.878906 C 77.542969 55.789062 77.394531 55.746094 77.242188 55.75 C 76.265625 55.90625 75.460938 56.449219 74.800781 57.171875 C 75.488281 57.613281 76.1875 58.050781 76.902344 58.445312 C 77.21875 57.796875 77.1875 57.164062 77.175781 56.460938 C 77.539062 56.804688 77.878906 57.101562 77.980469 57.625 C 78.257812 58.894531 78.027344 60.339844 77.722656 61.589844 C 77.257812 63.464844 76.535156 65.277344 75.652344 66.988281 C 75.285156 67.71875 74.757812 68.421875 74.613281 69.222656 C 74.394531 70.285156 74.527344 71.527344 75.007812 72.503906 C 75.734375 73.890625 77.511719 74.292969 78.878906 73.703125 C 80.347656 73.078125 81.320312 71.707031 82.101562 70.371094 C 82.886719 69.140625 83.375 67.800781 83.804688 66.410156 C 84.390625 64.464844 84.691406 62.484375 84.398438 60.453125 C 84.28125 60.027344 84.21875 59.511719 83.773438 59.300781 Z M 79.535156 71.828125 C 78.535156 72.523438 77.105469 72.292969 76.429688 71.253906 C 75.53125 69.898438 76.230469 67.992188 77.699219 67.402344 C 78.65625 66.996094 79.792969 67.367188 80.339844 68.246094 C 81.050781 69.417969 80.675781 71.066406 79.535156 71.828125 Z M 79.535156 71.828125 " fill-opacity="1" fill-rule="nonzero"/><path fill="#ffffff" d="M 78.070312 68.140625 C 77.226562 68.367188 76.8125 69.335938 77.003906 70.152344 C 77.148438 70.773438 77.671875 71.296875 78.339844 71.230469 C 79.414062 71.109375 79.996094 69.816406 79.546875 68.867188 C 79.292969 68.28125 78.6875 67.988281 78.070312 68.140625 Z M 78.070312 68.140625 " fill-opacity="1" fill-rule="nonzero"/><path fill="#6d6d6d" d="M 74.605469 73.457031 C 73.859375 72.539062 73.71875 71.382812 73.648438 70.238281 C 72.667969 71.515625 71.492188 72.84375 70.09375 73.660156 C 69.523438 74.003906 68.898438 74.140625 68.238281 74.179688 C 68.601562 73.808594 68.980469 73.453125 69.335938 73.078125 C 68.867188 72.847656 68.394531 72.621094 67.925781 72.390625 C 67.597656 73.132812 67.410156 73.816406 67.363281 74.640625 C 69.023438 75.996094 71.011719 77.003906 72.980469 77.820312 C 73.503906 78.007812 73.917969 78.289062 74.492188 78.125 C 76.550781 77.667969 78.320312 75.902344 79.648438 74.339844 C 77.957031 75.082031 75.832031 74.996094 74.605469 73.457031 Z M 74.605469 73.457031 " fill-opacity="1" fill-rule="nonzero"/><path fill="#e5b1a3" d="M 37.328125 42.914062 C 39.582031 44.488281 41.9375 45.925781 44.40625 47.136719 C 46.632812 48.238281 48.945312 49.15625 51.199219 50.207031 C 51.539062 49.703125 51.898438 49.230469 52.339844 48.808594 C 52.300781 50.460938 51.578125 51.742188 51.007812 53.230469 C 51.03125 53.550781 51.066406 53.863281 51.101562 54.179688 C 51.871094 53.046875 52.382812 51.839844 52.980469 50.585938 C 53.410156 49.679688 53.695312 48.726562 53.945312 47.757812 C 52.753906 47.96875 51.667969 48.191406 50.480469 47.78125 C 49.382812 47.382812 48.347656 46.785156 47.339844 46.195312 C 44.6875 44.617188 41.960938 42.972656 39.550781 41.042969 C 38.339844 40.066406 37.164062 39.023438 36.355469 37.675781 C 35.996094 37.078125 35.671875 36.273438 35.863281 35.574219 C 36.113281 35.023438 36.808594 34.660156 37.289062 34.339844 C 36.265625 34.28125 35.261719 34.554688 34.625 35.410156 C 33.472656 36.886719 33.710938 39.253906 34.804688 40.699219 C 35.472656 41.578125 36.445312 42.265625 37.328125 42.914062 Z M 37.328125 42.914062 " fill-opacity="1" fill-rule="nonzero"/><path fill="#e5b1a3" d="M 29.789062 51.78125 C 32.296875 53.355469 35.09375 54.488281 37.929688 55.304688 C 40.335938 55.941406 42.792969 56.386719 45.261719 56.703125 C 46.132812 56.820312 46.992188 56.921875 47.839844 57.140625 C 46.496094 57.277344 45.195312 57.132812 43.945312 57.734375 C 44.652344 58.101562 45.3125 58.527344 46.054688 58.828125 C 47.476562 59.402344 49.007812 59.699219 50.535156 59.699219 C 50.890625 59.71875 51.304688 59.6875 51.636719 59.824219 C 52.34375 60.210938 52.726562 61.113281 52.390625 61.878906 C 52.050781 62.585938 51.332031 62.996094 50.605469 63.199219 C 49.328125 63.546875 47.933594 63.523438 46.660156 63.160156 C 45.183594 62.765625 43.988281 61.914062 42.84375 60.921875 C 42.9375 61.71875 43.082031 62.46875 43.660156 63.066406 C 44.402344 63.824219 45.460938 64.316406 46.453125 64.648438 C 47.652344 65.035156 48.90625 65.320312 50.152344 65.488281 C 50.796875 65.566406 51.46875 65.644531 52.089844 65.425781 C 52.792969 65.183594 53.441406 64.707031 54.035156 64.269531 C 54.628906 63.820312 55.308594 63.296875 55.6875 62.640625 C 56.046875 62.035156 56.046875 61.253906 56.09375 60.566406 C 55.363281 60.289062 54.671875 60.105469 54.164062 59.457031 C 53.707031 58.960938 53.40625 58.183594 52.847656 57.816406 C 52.097656 57.667969 51.21875 57.773438 50.589844 58.242188 C 50.234375 58.496094 49.902344 58.789062 49.550781 59.054688 C 49.824219 58.484375 50.121094 57.945312 50.585938 57.503906 C 51.195312 56.90625 51.976562 56.613281 52.761719 56.328125 C 52.796875 55.898438 52.820312 55.464844 52.863281 55.035156 C 52.820312 55.28125 52.773438 55.523438 52.726562 55.769531 C 49.316406 55.476562 45.949219 54.941406 42.644531 54.027344 C 39.367188 53.132812 36.070312 52.097656 33.042969 50.519531 C 31.578125 49.738281 29.945312 48.574219 29.25 47.011719 C 28.90625 46.242188 29.28125 45.648438 29.554688 44.941406 C 28.21875 45.5 27.488281 46.875 27.585938 48.300781 C 27.632812 49.792969 28.554688 51.027344 29.789062 51.78125 Z M 29.789062 51.78125 " fill-opacity="1" fill-rule="nonzero"/><path fill="#e5b1a3" d="M 55.960938 58.738281 C 57.15625 59.257812 58.480469 58.992188 59.542969 58.285156 C 61.132812 57.214844 62.382812 55.589844 63.09375 53.804688 C 63.5625 52.710938 63.730469 51.566406 64.109375 50.449219 C 64.210938 51.386719 64.226562 52.316406 63.996094 53.242188 C 63.457031 55.40625 63.152344 57.753906 63.5 59.976562 C 63.640625 60.945312 63.964844 61.777344 63.867188 62.726562 C 64.304688 63.160156 64.710938 63.566406 65.289062 63.808594 C 66.3125 64.25 67.492188 64.085938 68.472656 63.617188 C 69.46875 63.140625 70.238281 62.40625 70.929688 61.558594 C 71.246094 60.617188 71.640625 59.75 71.828125 58.765625 C 71.054688 59.425781 70.316406 59.996094 69.242188 59.96875 C 67.9375 59.988281 66.90625 59.121094 66.34375 57.992188 C 65.523438 56.347656 65.648438 54.46875 65.402344 52.691406 C 65.28125 51.8125 65.136719 50.765625 64.632812 50.015625 C 64.175781 49.359375 63.488281 49.269531 62.75 49.207031 C 62.292969 50.265625 62.050781 51.398438 61.558594 52.445312 C 61.207031 53.277344 60.703125 54.011719 60.257812 54.792969 C 59.777344 55.625 59.875 56.875 59.167969 57.539062 C 58.667969 58.027344 58.015625 58.035156 57.378906 57.855469 C 56.472656 57.585938 55.59375 57.273438 54.65625 57.121094 C 54.921875 57.800781 55.269531 58.417969 55.960938 58.738281 Z M 55.960938 58.738281 " fill-opacity="1" fill-rule="nonzero"/><path fill="#e5b1a3" d="M 69.898438 68.5 C 68.886719 68.078125 68.492188 67.179688 68.082031 66.234375 C 67.0625 67.425781 65.761719 68.238281 64.171875 68.332031 C 62.132812 68.503906 60.121094 67.386719 59.164062 65.582031 C 58.574219 64.363281 58.535156 62.871094 59.027344 61.609375 C 59.210938 61.132812 59.433594 60.667969 59.632812 60.195312 C 58.9375 60.433594 58.226562 60.550781 57.5 60.652344 C 57.394531 61.648438 57.195312 62.574219 56.761719 63.476562 C 57.511719 64.683594 58.230469 66.226562 58.164062 67.675781 C 57.910156 69.460938 56.753906 70.757812 55.425781 71.859375 C 57.066406 72.625 58.90625 72.988281 60.710938 72.835938 C 62.390625 72.617188 64.121094 71.917969 65.308594 70.667969 C 66.308594 69.671875 67.027344 68.496094 67.769531 67.300781 C 67.792969 68.417969 67.519531 69.375 67.070312 70.378906 C 68.296875 70.699219 69.367188 71.21875 70.414062 71.933594 C 71.476562 70.757812 72.316406 69.460938 73.117188 68.09375 C 72.050781 68.496094 71.046875 68.957031 69.898438 68.5 Z M 69.898438 68.5 " fill-opacity="1" fill-rule="nonzero"/><path fill="#e5b1a3" d="M 55.785156 69.328125 C 56.226562 68.773438 56.71875 68.046875 56.753906 67.320312 C 56.730469 66.34375 56.320312 65.34375 55.847656 64.5 C 54.878906 65.1875 54.015625 65.949219 52.957031 66.535156 C 53.011719 67.140625 53.1875 67.777344 52.753906 68.289062 C 52.078125 69.125 50.804688 69.339844 49.796875 69.324219 C 48.78125 69.335938 47.917969 68.976562 46.976562 68.648438 C 47.324219 69.46875 47.738281 70.34375 48.589844 70.730469 C 49.496094 71.132812 50.648438 71.117188 51.625 71.117188 C 53.199219 71.121094 54.761719 70.574219 55.785156 69.328125 Z M 55.785156 69.328125 " fill-opacity="1" fill-rule="nonzero"/></svg>